<svg version="1.1" id="Layer_1" xmlns="http://www.w3.org/2000/svg" xmlns:xlink="http://www.w3.org/1999/xlink" x="0px" y="0px"
	 width="100%" viewBox="0 0 239 234" enable-background="new 0 0 239 234" xml:space="preserve">
<path fill="#FFFFFF" opacity="1.000000" stroke="none" 
	d="
M133.000000,235.000000 
	C88.666672,235.000000 44.833340,235.000000 1.000006,235.000000 
	C1.000004,157.000000 1.000004,79.000015 1.000002,1.000016 
	C80.666656,1.000011 160.333313,1.000011 239.999969,1.000005 
	C239.999985,78.999985 239.999985,156.999969 240.000000,234.999969 
	C204.500000,235.000000 169.000000,235.000000 133.000000,235.000000 
M85.165344,192.391220 
	C85.420685,192.603012 85.676025,192.814804 85.999947,193.014267 
	C85.999947,193.014267 85.959061,193.070679 85.950653,193.842880 
	C88.749634,199.167847 91.463120,204.540146 94.377312,209.801300 
	C96.358162,213.377441 99.249153,215.237488 103.692604,215.126602 
	C109.066971,214.992493 114.515999,216.233063 119.825493,215.735214 
	C122.909813,215.445999 127.038368,213.665985 128.496155,211.236313 
	C131.718857,205.865036 133.627289,199.689041 135.927475,193.785049 
	C138.202438,187.945816 140.166122,181.983505 142.507080,176.172165 
	C145.899551,167.750412 149.508514,159.415848 153.704498,150.890121 
	C154.339996,150.166321 155.356339,149.532639 155.552277,148.704788 
	C157.585541,140.113998 165.820816,134.552124 166.844574,125.454842 
	C166.982574,124.228531 168.057770,123.120155 168.642181,121.929298 
	C170.428757,118.288841 172.187607,114.634781 174.533264,111.169846 
	C175.986038,109.056885 177.601151,107.035675 178.858139,104.812035 
	C181.551727,100.047012 183.177200,94.272079 186.914062,90.626770 
	C190.111343,87.507851 191.321152,84.855186 190.951218,81.014915 
	C190.951218,81.014915 190.851669,80.877388 191.570892,80.911888 
	C193.375534,79.093544 195.506592,77.496582 196.919922,75.412827 
	C200.332031,70.382118 203.320312,65.066147 206.647064,59.974705 
	C209.656219,55.369373 213.003922,50.984421 215.989563,46.364780 
	C219.319748,41.212009 216.906525,35.494621 210.981339,35.157894 
	C205.032410,34.819820 198.765076,34.343601 193.114960,35.791687 
	C183.918503,38.148678 176.325226,43.161831 171.383102,52.137337 
	C164.250809,65.090439 155.907043,77.371468 148.588806,90.228760 
	C142.674515,100.619469 137.511673,111.437889 131.430084,122.460930 
	C129.697006,126.541519 128.134430,130.707291 126.156601,134.665588 
	C125.214027,136.552002 122.928276,137.842438 122.230759,139.759354 
	C121.044876,143.018417 121.043648,146.715378 119.812950,149.949921 
	C117.112251,157.047989 113.953934,163.971924 110.982460,170.966965 
	C110.318558,171.061066 109.654648,171.155167 108.990746,171.249283 
	C106.702545,166.914474 104.949715,162.168884 102.008217,158.335342 
	C96.812119,151.563461 90.945747,145.298111 85.187195,138.978134 
	C84.643631,138.381577 82.872864,138.903198 81.214134,138.613113 
	C81.127930,138.453873 81.041718,138.294632 80.997406,137.335693 
	C79.716255,136.088928 78.616196,134.077499 77.123505,133.723999 
	C69.499611,131.918472 61.765797,132.581650 54.849361,136.003540 
	C48.251019,139.268051 45.241001,146.118362 50.611187,152.330719 
	C56.538383,159.187439 62.270412,166.215042 68.290558,172.987686 
	C69.794617,174.679733 72.078590,175.678497 74.000000,177.000000 
	C74.000000,177.000000 74.004250,176.996201 73.964447,177.765442 
	C76.019913,183.788910 79.563606,188.640579 84.997055,191.964355 
	C84.997055,191.964355 85.087791,191.885895 85.165344,192.391220 
M175.578613,113.514450 
	C175.578613,113.514450 175.477524,113.572945 175.578613,113.514450 
z"/>
<path fill="#3EB44E" opacity="1.000000" stroke="none" 
	d="
M80.955513,138.135376 
	C81.041718,138.294632 81.127930,138.453873 81.527954,139.047073 
	C91.613968,151.765213 101.386154,164.049393 111.385674,176.619354 
	C113.593987,171.114090 115.695473,165.721420 117.913406,160.377060 
	C122.946587,148.249084 128.037064,136.144897 133.338989,123.777618 
	C145.585236,99.044418 159.183838,75.502274 173.858856,52.498291 
	C182.844391,38.412910 195.985275,36.866806 210.287994,37.387596 
	C215.889359,37.591549 217.079666,40.782543 214.025513,45.515541 
	C211.865372,48.863083 209.411011,52.020359 207.239838,55.361248 
	C201.731567,63.837025 196.308716,72.368324 190.851669,80.877388 
	C190.851669,80.877388 190.951218,81.014915 190.602615,81.077240 
	C184.426865,91.063560 178.599701,100.987564 172.516083,111.124756 
	C165.784210,124.111740 159.308807,136.885544 152.567474,149.894012 
	C145.157715,167.103592 137.847641,184.011078 130.929565,201.077469 
	C126.449203,212.130219 124.371796,213.866150 112.196381,213.861160 
	C109.713577,213.860138 107.232086,213.538834 104.747887,213.403763 
	C100.552078,213.175629 97.774490,211.009735 95.598885,207.469498 
	C92.577057,202.552246 89.189850,197.859528 85.959061,193.070679 
	C85.959061,193.070679 85.999947,193.014267 85.942505,192.758484 
	C85.619308,192.297104 85.353554,192.091492 85.087799,191.885895 
	C85.087791,191.885895 84.997055,191.964355 84.999268,191.597977 
	C81.335739,186.486465 77.669998,181.741333 74.004250,176.996201 
	C74.004250,176.996201 74.000000,177.000000 73.952888,176.658951 
	C66.664101,167.913849 59.390278,159.537201 52.193672,151.094742 
	C48.316422,146.546265 48.721466,143.486908 53.470428,139.871185 
	C61.291534,133.916412 73.048180,133.173920 80.955513,138.135376 
z"/>
<path fill="#DFFAE2" opacity="1.000000" stroke="none" 
	d="
M191.211273,80.894638 
	C196.308716,72.368324 201.731567,63.837025 207.239838,55.361248 
	C209.411011,52.020359 211.865372,48.863083 214.025513,45.515541 
	C217.079666,40.782543 215.889359,37.591549 210.287994,37.387596 
	C195.985275,36.866806 182.844391,38.412910 173.858856,52.498291 
	C159.183838,75.502274 145.585236,99.044418 133.080261,123.622177 
	C132.396362,123.168961 132.205917,122.617760 132.015472,122.066566 
	C137.511673,111.437889 142.674515,100.619469 148.588806,90.228760 
	C155.907043,77.371468 164.250809,65.090439 171.383102,52.137337 
	C176.325226,43.161831 183.918503,38.148678 193.114960,35.791687 
	C198.765076,34.343601 205.032410,34.819820 210.981339,35.157894 
	C216.906525,35.494621 219.319748,41.212009 215.989563,46.364780 
	C213.003922,50.984421 209.656219,55.369373 206.647064,59.974705 
	C203.320312,65.066147 200.332031,70.382118 196.919922,75.412827 
	C195.506592,77.496582 193.375534,79.093544 191.211273,80.894638 
z"/>
<path fill="#DFFAE3" opacity="1.000000" stroke="none" 
	d="
M131.722778,122.263748 
	C132.205917,122.617760 132.396362,123.168961 132.845520,123.875595 
	C128.037064,136.144897 122.946587,148.249084 117.913406,160.377060 
	C115.695473,165.721420 113.593987,171.114090 111.385674,176.619354 
	C101.386154,164.049393 91.613968,151.765213 81.756813,139.193359 
	C82.872864,138.903198 84.643631,138.381577 85.187195,138.978134 
	C90.945747,145.298111 96.812119,151.563461 102.008217,158.335342 
	C104.949715,162.168884 106.702545,166.914474 108.990746,171.249283 
	C109.654648,171.155167 110.318558,171.061066 110.982460,170.966965 
	C113.953934,163.971924 117.112251,157.047989 119.812950,149.949921 
	C121.043648,146.715378 121.044876,143.018417 122.230759,139.759354 
	C122.928276,137.842438 125.214027,136.552002 126.156601,134.665588 
	C128.134430,130.707291 129.697006,126.541519 131.722778,122.263748 
z"/>
<path fill="#DBF9DF" opacity="1.000000" stroke="none" 
	d="
M85.954849,193.456787 
	C89.189850,197.859528 92.577057,202.552246 95.598885,207.469498 
	C97.774490,211.009735 100.552078,213.175629 104.747887,213.403763 
	C107.232086,213.538834 109.713577,213.860138 112.196381,213.861160 
	C124.371796,213.866150 126.449203,212.130219 130.929565,201.077469 
	C137.847641,184.011078 145.157715,167.103592 152.624084,150.239212 
	C152.972824,150.581192 152.998978,150.812637 153.025146,151.044098 
	C149.508514,159.415848 145.899551,167.750412 142.507080,176.172165 
	C140.166122,181.983505 138.202438,187.945816 135.927475,193.785049 
	C133.627289,199.689041 131.718857,205.865036 128.496155,211.236313 
	C127.038368,213.665985 122.909813,215.445999 119.825493,215.735214 
	C114.515999,216.233063 109.066971,214.992493 103.692604,215.126602 
	C99.249153,215.237488 96.358162,213.377441 94.377312,209.801300 
	C91.463120,204.540146 88.749634,199.167847 85.954849,193.456787 
z"/>
<path fill="#E0F9E1" opacity="1.000000" stroke="none" 
	d="
M80.976456,137.735535 
	C73.048180,133.173920 61.291534,133.916412 53.470428,139.871185 
	C48.721466,143.486908 48.316422,146.546265 52.193672,151.094742 
	C59.390278,159.537201 66.664101,167.913849 73.954941,176.656906 
	C72.078590,175.678497 69.794617,174.679733 68.290558,172.987686 
	C62.270412,166.215042 56.538383,159.187439 50.611187,152.330719 
	C45.241001,146.118362 48.251019,139.268051 54.849361,136.003540 
	C61.765797,132.581650 69.499611,131.918472 77.123505,133.723999 
	C78.616196,134.077499 79.716255,136.088928 80.976456,137.735535 
z"/>
<path fill="#DEF9E3" opacity="1.000000" stroke="none" 
	d="
M153.364822,150.967102 
	C152.998978,150.812637 152.972824,150.581192 152.890030,150.004547 
	C159.308807,136.885544 165.784210,124.111740 172.811890,111.149963 
	C173.561859,110.969994 173.759552,110.978004 173.957245,110.986008 
	C172.187607,114.634781 170.428757,118.288841 168.642181,121.929298 
	C168.057770,123.120155 166.982574,124.228531 166.844574,125.454842 
	C165.820816,134.552124 157.585541,140.113998 155.552277,148.704788 
	C155.356339,149.532639 154.339996,150.166321 153.364822,150.967102 
z"/>
<path fill="#DFFAE2" opacity="1.000000" stroke="none" 
	d="
M174.245255,111.077927 
	C173.759552,110.978004 173.561859,110.969994 173.068359,110.936783 
	C178.599701,100.987564 184.426865,91.063560 190.563354,81.002441 
	C191.321152,84.855186 190.111343,87.507851 186.914062,90.626770 
	C183.177200,94.272079 181.551727,100.047012 178.858139,104.812035 
	C177.601151,107.035675 175.986038,109.056885 174.245255,111.077927 
z"/>
<path fill="#E0F9E1" opacity="1.000000" stroke="none" 
	d="
M73.984344,177.380829 
	C77.669998,181.741333 81.335739,186.486465 85.054443,191.574509 
	C79.563606,188.640579 76.019913,183.788910 73.984344,177.380829 
z"/>
<path fill="#DFFAE2" opacity="1.000000" stroke="none" 
	d="
M175.528076,113.543701 
	C175.477524,113.572945 175.578613,113.514450 175.528076,113.543701 
z"/>
<path fill="#DBF9DF" opacity="1.000000" stroke="none" 
	d="
M85.126572,192.138550 
	C85.353554,192.091492 85.619308,192.297104 85.908218,192.764648 
	C85.676025,192.814804 85.420685,192.603012 85.126572,192.138550 
z"/>
</svg>