<svg version="1.1" id="Layer_1" xmlns="http://www.w3.org/2000/svg" xmlns:xlink="http://www.w3.org/1999/xlink" x="0px" y="0px"
	 width="100%" viewBox="0 0 205 176" enable-background="new 0 0 205 176" xml:space="preserve">
<path fill="#FEFFFF" opacity="1.000000" stroke="none" 
	d="
M1.000000,67.000000 
	C1.000000,44.666672 1.000000,22.833344 1.000000,1.000012 
	C69.333313,1.000008 137.666626,1.000008 205.999954,1.000004 
	C205.999969,59.666630 205.999969,118.333260 205.999985,176.999908 
	C137.666718,176.999939 69.333435,176.999939 1.000078,176.999969 
	C1.000000,140.500000 1.000000,104.000000 1.000000,67.000000 
M168.859131,127.509377 
	C168.583221,127.339020 168.307297,127.168663 167.574493,126.784035 
	C167.383972,126.512978 167.193451,126.241920 166.862518,125.492149 
	C166.670547,125.185356 166.393951,125.020653 165.994186,125.002495 
	C165.994186,125.002495 166.005844,124.965508 166.041031,124.181320 
	C166.245850,121.168671 164.365601,120.792557 161.539413,120.832710 
	C161.357254,120.554230 161.175110,120.275749 161.027908,119.248665 
	C159.691162,118.168175 158.354431,117.087685 156.994415,116.005630 
	C156.994415,116.005630 156.992798,115.982330 157.014389,115.244705 
	C156.011429,114.497101 155.008453,113.749496 153.999390,113.000610 
	C153.999390,113.000610 153.997772,112.994881 154.024673,112.261017 
	C151.348862,109.846672 148.673050,107.432335 145.996948,105.003242 
	C145.996948,105.003242 145.982162,105.003540 145.840759,104.515282 
	C145.558487,104.347946 145.276199,104.180611 144.998993,104.000916 
	C144.998993,104.000916 144.986359,104.005295 145.024689,103.264603 
	C143.021393,101.508240 141.018112,99.751884 138.998779,98.000916 
	C138.998779,98.000916 139.003357,97.984528 138.865128,97.492928 
	C138.581512,97.327736 138.297882,97.162544 137.998901,97.001587 
	C137.998901,97.001587 138.001373,96.986153 137.838089,96.500648 
	C137.548859,96.340683 137.259628,96.180717 136.499435,95.843056 
	C136.329254,95.559776 136.159058,95.276505 136.010498,94.249969 
	C134.996124,93.512955 133.981766,92.775940 133.000000,92.000305 
	C133.000000,92.000305 132.964951,92.036530 132.822037,91.540779 
	C132.534485,91.373260 132.246918,91.205734 131.976807,91.025146 
	C131.976807,91.025146 131.970428,91.023689 132.018005,90.172661 
	C131.716232,84.660080 133.430862,80.441673 138.533112,77.418861 
	C140.327087,76.356033 140.877182,73.193642 142.229202,70.455223 
	C142.819290,69.974617 143.409378,69.494011 144.446533,69.567757 
	C149.146164,69.727905 150.601364,68.045715 151.000000,62.000000 
	C151.000000,62.000000 150.995193,61.997192 151.786774,62.023834 
	C154.548981,62.060871 157.234756,62.035881 155.171524,57.569286 
	C155.375412,57.302891 155.490128,57.002457 155.493073,56.557266 
	C155.493073,56.557266 155.604736,56.539825 156.135223,56.377113 
	C156.449203,55.935257 156.763168,55.493401 157.008774,55.013145 
	C157.008774,55.013145 157.034866,55.087093 157.531219,55.089073 
	C157.531219,55.089073 158.020844,55.009811 158.562561,55.243240 
	C161.334351,55.655502 162.423233,54.787529 161.191605,51.543602 
	C161.473709,51.367245 161.755829,51.190891 162.634399,51.284218 
	C164.427536,50.281929 166.481064,49.563747 167.954758,48.212959 
	C170.362610,46.005936 172.012268,42.793259 174.675064,41.086411 
	C178.286545,38.771458 179.587128,36.007858 179.021774,31.501633 
	C179.086304,31.343758 179.150848,31.185883 179.934113,30.823870 
	C183.315033,23.263615 180.328873,18.229725 173.515579,17.482134 
	C173.515579,17.482134 173.408478,17.428692 173.734314,16.733707 
	C173.049576,14.127825 171.926590,12.371611 168.288651,14.134319 
	C167.875046,14.007743 167.461456,13.881166 166.514099,13.265655 
	C162.207275,11.914506 157.957550,12.008294 154.600403,15.235881 
	C148.925308,20.691977 143.545822,26.455564 137.617462,31.488972 
	C135.391220,31.369022 132.117386,30.315792 131.191864,31.354656 
	C129.903732,32.800549 130.374069,35.813080 130.076004,38.875343 
	C129.605927,39.694809 129.271210,40.640697 128.643433,41.312885 
	C125.013649,45.199474 121.612144,49.376160 117.561676,52.772923 
	C112.816658,56.752132 109.205009,64.036240 100.458168,59.844437 
	C100.225792,59.616066 100.066658,59.344742 99.992516,58.274818 
	C99.480049,55.411621 98.673477,52.829453 94.868423,52.320408 
	C93.893448,51.888916 92.918480,51.457424 91.379295,50.736576 
	C90.251854,49.493313 89.124413,48.250050 87.822372,46.518986 
	C87.528900,46.357750 87.235435,46.196514 86.994865,45.997242 
	C86.994865,45.997242 86.959991,46.052055 86.991493,45.298405 
	C85.985100,44.536247 84.978706,43.774090 83.413460,42.772709 
	C82.619064,42.164955 81.824677,41.557201 80.999763,40.997871 
	C80.999763,40.997871 81.054390,40.980801 81.074532,40.493134 
	C81.074532,40.493134 80.996498,40.011539 81.011902,39.273453 
	C78.996262,37.519035 76.980614,35.764614 74.445091,33.790863 
	C73.977638,33.503269 73.510178,33.215675 73.006485,32.996227 
	C73.006485,32.996227 73.071434,32.954525 72.928986,32.410961 
	C72.614357,31.953386 72.299736,31.495811 72.012962,30.199226 
	C72.611671,26.066582 70.055634,25.728561 66.999969,26.004196 
	C66.999969,26.004196 66.987358,26.021845 66.820763,25.536373 
	C66.537666,25.360956 66.254570,25.185539 65.511017,24.937967 
	C65.511017,24.937967 65.045151,24.923965 65.005638,24.992157 
	C65.005638,24.992157 65.075157,24.955025 65.077477,24.483078 
	C65.077477,24.483078 64.992111,24.018982 65.011490,23.287193 
	C61.618656,19.691324 58.739483,15.287092 54.694847,12.716970 
	C50.261421,9.899797 43.157776,12.472422 40.881565,16.757288 
	C40.317642,17.201847 39.753716,17.646404 38.643528,18.218281 
	C38.469238,18.532339 38.294949,18.846397 38.041843,19.003082 
	C38.041843,19.003082 38.148483,19.143187 37.390087,19.068312 
	C33.534214,20.089848 33.308243,22.818064 34.141739,26.824415 
	C34.135235,28.143866 34.128731,29.463318 34.056690,31.245970 
	C34.098007,31.581690 34.266346,31.831936 34.845150,32.621849 
	C34.999607,33.051991 35.154060,33.482128 34.741341,34.232731 
	C35.303589,34.748280 35.865833,35.263828 36.912399,36.193481 
	C38.653965,38.109478 40.395531,40.025478 41.564495,42.327583 
	C41.781822,46.863243 44.407143,49.081768 48.678288,48.132710 
	C49.431282,48.967506 50.184277,49.802303 50.205063,50.921345 
	C49.527073,55.043190 50.756222,56.035145 55.638378,55.366795 
	C55.638378,55.366795 55.774967,55.480114 55.342022,56.208782 
	C56.399639,56.897694 57.457260,57.586609 58.588200,58.402039 
	C58.588200,58.402039 58.722942,58.458817 58.337715,59.191967 
	C59.292686,59.764774 60.247662,60.337578 61.753277,61.133820 
	C62.535828,62.012623 63.318375,62.891426 64.035713,64.555267 
	C64.357376,67.199318 65.082542,69.361542 68.567749,68.424110 
	C68.567749,68.424110 68.696205,68.474312 68.281639,69.271454 
	C67.786621,72.869324 70.404320,71.789238 72.778885,72.138374 
	C73.553978,73.030449 74.329063,73.922523 74.787750,75.508522 
	C73.919037,77.448433 73.325012,78.939293 76.091255,80.289848 
	C78.642708,81.535545 80.677307,83.839859 83.388268,86.042458 
	C79.983490,89.246246 76.964050,92.087448 73.755638,95.106476 
	C74.417053,95.369324 75.258957,95.703896 75.956345,96.522423 
	C75.809303,96.820808 75.662254,97.119194 75.494965,97.526207 
	C75.494965,97.526207 75.387192,97.550560 74.939201,97.673363 
	C74.703354,97.894730 74.424217,98.018486 73.334999,98.007492 
	C72.224144,98.671967 71.113289,99.336441 69.397346,100.084564 
	C69.096619,100.510017 68.795898,100.935471 68.495171,101.360931 
	C69.032242,101.584862 69.569321,101.808792 69.935600,102.549156 
	C69.805092,102.881844 69.674583,103.214531 69.976440,103.902855 
	C69.831818,103.781990 69.687195,103.661125 69.017395,103.619598 
	C68.688370,103.750008 68.359337,103.880417 67.295959,104.004280 
	C66.469299,104.948288 65.642639,105.892296 64.114685,106.947876 
	C59.410892,111.632973 54.707104,116.318069 49.239525,121.017525 
	C44.876041,121.245529 43.665379,123.980782 43.120152,127.949348 
	C39.245979,128.780655 36.411228,130.487579 36.945187,135.562500 
	C36.803326,135.842804 36.583157,136.031937 35.528294,136.106598 
	C32.744732,137.070038 32.131161,138.672058 34.100964,141.819534 
	C34.184486,142.598770 34.268009,143.378021 34.235451,144.739258 
	C34.213032,145.133682 34.190613,145.528122 33.662182,146.210098 
	C34.055084,146.814453 34.447983,147.418793 35.075218,148.376114 
	C35.075218,148.376114 35.104813,148.798767 34.772228,149.515289 
	C32.492775,154.842758 36.271454,153.951172 39.770782,154.129028 
	C39.895309,154.610916 40.019833,155.092819 39.863106,155.862381 
	C39.872074,156.031738 39.881042,156.201096 39.890015,156.370453 
	C40.018951,156.147064 40.147892,155.923691 40.633648,155.452240 
	C40.633648,155.452240 40.999821,155.686279 41.242790,156.315384 
	C41.845833,156.529556 42.448875,156.743729 43.031284,156.981033 
	C43.031284,156.981033 43.042412,156.947266 43.102345,157.645309 
	C44.718197,158.664993 46.330997,160.550690 47.950417,160.556381 
	C55.490818,160.582916 60.825287,155.858673 66.026237,151.156265 
	C68.132385,149.251999 70.043304,147.122559 71.958855,145.018906 
	C74.890701,141.799164 77.696457,138.463867 80.651634,135.266235 
	C85.392403,130.136505 90.211601,125.079247 95.737366,119.983032 
	C98.155548,117.986092 100.573730,115.989151 103.707352,113.977386 
	C107.222725,113.651764 105.625290,111.667801 105.765442,109.993599 
	C106.876549,109.592262 107.987648,109.190933 109.554840,108.885658 
	C109.809898,109.074600 110.094048,109.194801 110.590263,109.847267 
	C110.790726,110.213074 110.991188,110.578880 110.664146,111.267166 
	C111.388573,111.906090 112.112999,112.545013 112.935562,113.972183 
	C114.112045,115.872070 115.199799,117.836372 116.509026,119.639893 
	C117.026855,120.353233 118.513733,120.550179 118.747841,121.252686 
	C120.550827,126.663086 125.377327,128.152496 129.953934,130.897064 
	C129.676361,134.516037 132.008026,135.134796 134.950272,135.878357 
	C136.228867,137.706985 137.367050,139.657059 138.818863,141.335892 
	C141.015961,143.876556 143.543137,146.132538 145.730179,148.681015 
	C149.894241,153.533203 153.240692,159.504532 161.821091,159.021423 
	C163.183350,159.068497 164.545609,159.115570 166.065063,159.716888 
	C166.408661,159.998550 166.752243,160.280228 167.095840,160.561890 
	C167.400894,160.045639 167.705948,159.529388 168.035645,158.541595 
	C168.035645,158.541595 168.005829,158.070343 168.305359,157.837418 
	C168.305359,157.837418 168.683380,157.804855 169.481537,157.929245 
	C174.093140,157.412888 179.937622,152.196884 180.581146,147.184097 
	C180.874130,144.901810 179.568161,142.414261 178.752090,139.763779 
	C178.752090,139.763779 178.746201,139.416046 178.912674,138.591660 
	C178.545212,135.639603 178.388321,132.505432 174.001465,132.998154 
	C174.001465,132.998154 174.019592,132.940613 174.026581,132.216187 
	C173.039795,131.464935 172.053024,130.713669 171.003906,129.993683 
	C171.003906,129.993683 171.030991,129.929413 170.886002,129.451294 
	C170.685150,129.148300 170.403015,128.992920 169.998352,129.001892 
	C169.998352,129.001892 170.012726,128.959793 169.858261,128.480774 
	C169.573990,128.323822 169.289734,128.166855 168.996826,128.002884 
	C168.996826,128.002884 168.989670,127.994156 168.859131,127.509377 
z"/>
<path fill="#EA1D26" opacity="1.000000" stroke="none" 
	d="
M178.746201,139.416046 
	C178.746201,139.416046 178.752090,139.763779 178.837250,140.317841 
	C180.227234,149.369003 174.243988,153.459152 168.683380,157.804855 
	C168.683380,157.804855 168.305359,157.837418 167.720276,157.908585 
	C165.099945,158.006165 163.064697,158.032578 160.748779,157.871063 
	C157.266998,154.929520 154.065872,152.175888 150.813705,149.110931 
	C150.417404,148.598755 150.072174,148.397888 149.784943,148.182190 
	C149.842972,148.167389 149.785812,148.272629 149.750748,147.983856 
	C149.387085,147.532043 149.058502,147.368973 148.823639,147.174683 
	C148.917358,147.143478 148.759247,147.261932 148.801849,146.899460 
	C148.136169,146.112579 147.427872,145.688187 146.799255,145.138733 
	C146.878952,145.013702 146.731049,145.262878 146.778656,144.904724 
	C146.127960,144.121292 145.429657,143.696030 144.784943,143.136703 
	C144.838516,143.002640 144.764206,143.281540 144.741089,142.989655 
	C144.388657,142.533936 144.059311,142.370117 143.789185,142.177124 
	C143.848389,142.147934 143.793945,142.268188 143.758606,141.977936 
	C143.389633,141.533936 143.056015,141.380157 142.776276,141.190292 
	C142.830170,141.154190 142.796661,141.279526 142.733185,140.968109 
	C142.303131,140.479752 141.936554,140.302826 141.403931,140.072266 
	C141.026642,139.885498 140.903168,139.695343 140.810089,139.133453 
	C140.396057,138.630219 140.039413,138.441727 139.786163,138.275055 
	C139.889587,138.296875 139.678284,138.302963 139.761520,137.941193 
	C137.791428,135.826935 135.738113,134.074417 133.688614,132.188232 
	C133.692444,132.054535 133.716461,132.320404 133.699158,132.025940 
	C133.347641,131.578232 133.013428,131.425003 132.822083,131.254822 
	C132.964935,131.237854 132.687042,131.312500 132.764435,130.951599 
	C130.424026,127.775673 128.165680,124.798637 125.530014,122.205048 
	C123.889305,120.590515 121.677872,119.555939 119.839378,118.133438 
	C119.956177,118.005798 119.741722,118.277138 119.790466,117.908493 
	C119.108887,117.154030 118.378563,116.768211 117.728149,116.399353 
	C117.808052,116.416306 117.659302,116.350731 117.665611,116.053619 
	C117.336700,115.609459 117.001488,115.462418 116.698288,115.331779 
	C116.730309,115.348183 116.650238,115.336327 116.732330,114.965790 
	C115.568314,113.711395 114.322212,112.827530 113.036362,111.966240 
	C112.996597,111.988815 113.062569,111.924980 113.029633,111.569366 
	C112.133553,110.557922 111.270409,109.902092 110.407272,109.246262 
	C110.094048,109.194801 109.809898,109.074600 109.347702,108.626213 
	C109.140572,108.366768 109.053879,107.950775 109.009521,107.606705 
	C108.432381,106.943680 107.899597,106.624725 107.150314,106.322067 
	C106.653519,106.251129 106.367348,106.222267 105.947021,106.035034 
	C105.225388,106.577744 104.632019,107.337181 104.032288,108.058472 
	C104.025917,108.020325 104.099670,108.043633 103.847366,108.090500 
	C103.341125,108.362053 103.087189,108.586746 102.539833,108.898285 
	C101.756943,109.588867 101.267487,110.192612 100.491440,110.890167 
	C99.728958,111.587677 99.253067,112.191368 98.589417,112.932968 
	C98.156776,113.266724 97.944496,113.493141 97.561890,113.933556 
	C97.246239,114.455582 97.133492,114.794167 96.948265,115.343948 
	C96.720795,115.840515 96.481979,116.001701 95.887642,116.105591 
	C95.421623,116.476936 95.227303,116.781403 95.025940,117.049637 
	C95.018898,117.013412 95.089958,117.033386 94.827087,117.110733 
	C94.376137,117.488869 94.188049,117.789658 93.921982,118.303673 
	C93.665138,118.785278 93.416565,118.945633 92.835861,119.077194 
	C92.389236,119.458687 92.205070,119.760941 92.012207,120.032982 
	C92.003502,120.002762 92.063538,120.021515 91.806328,120.096962 
	C91.374710,120.471130 91.200294,120.769859 91.015167,121.036766 
	C91.004456,121.004951 91.064461,121.035065 90.726074,121.043205 
	C89.934944,121.720924 89.482193,122.390503 89.015701,123.031578 
	C89.001953,123.003067 89.059792,123.028809 88.725449,123.036285 
	C87.924294,123.699837 87.457474,124.355904 86.993027,125.003487 
	C86.995392,124.995010 87.012527,124.990974 86.679352,125.016129 
	C85.911209,125.719078 85.476257,126.396866 85.025558,127.041710 
	C85.009811,127.008766 85.079544,127.030418 84.822601,127.107697 
	C84.386444,127.481949 84.207222,127.778931 84.017410,128.042114 
	C84.006828,128.008331 84.070923,128.038452 83.718460,128.044205 
	C82.589256,129.054855 81.812515,130.059753 81.018723,131.036621 
	C81.001663,131.008606 81.066315,131.019791 80.808350,131.112488 
	C80.371773,131.512650 80.193161,131.820099 79.928268,132.332275 
	C79.660545,132.794327 79.414215,132.946854 78.719620,132.982040 
	C77.568825,133.999924 76.801414,135.030319 76.018997,136.031921 
	C76.003990,136.003113 76.065834,136.022980 75.809265,136.095154 
	C75.372292,136.460938 75.191887,136.754532 75.005569,137.023148 
	C74.999672,136.998154 75.046478,137.019257 74.696396,137.025574 
	C73.571907,138.038834 72.797493,139.045761 72.011353,140.026886 
	C71.999641,140.001083 72.054955,140.013367 71.797226,140.099609 
	C71.362671,140.490387 71.185829,140.794891 70.913910,141.313202 
	C70.615837,141.786423 70.351402,141.940247 69.688385,142.017624 
	C68.901398,142.732361 68.451553,143.417923 67.924667,144.314423 
	C67.661674,144.782761 67.411842,144.936096 66.755783,145.000305 
	C65.940720,145.682465 65.468010,146.349701 64.995102,147.006805 
	C64.994904,146.996689 65.014915,146.994186 64.638062,146.989563 
	C63.525558,148.016953 62.789921,149.048950 62.032230,150.047440 
	C62.010178,150.013916 62.086918,150.037430 61.830826,150.108673 
	C61.385712,150.468094 61.196682,150.756271 61.003437,151.020523 
	C60.999218,150.996582 61.043987,151.015579 60.709476,151.033386 
	C59.923645,151.717407 59.472324,152.383636 59.011414,153.024231 
	C59.001823,152.998627 59.051186,153.022171 58.715462,153.034668 
	C57.927139,153.713242 57.474541,154.379288 57.009911,155.023132 
	C56.997883,155.000900 57.046505,155.014603 56.796280,155.075226 
	C56.327618,155.393845 56.109180,155.651810 55.782898,156.014481 
	C55.675053,156.119171 55.374462,156.123001 54.936302,156.071503 
	C48.396767,157.636322 43.417130,155.966080 39.405834,151.073196 
	C38.916523,150.476349 37.678928,150.492950 36.802452,150.220612 
	C36.816784,150.215958 36.814453,150.191757 36.887547,149.798279 
	C36.264099,148.269257 35.567554,147.133682 34.698700,145.947632 
	C34.526394,145.897141 34.168194,145.922546 34.168190,145.922546 
	C34.190613,145.528122 34.213032,145.133682 34.622467,144.332214 
	C37.019119,139.961594 39.028751,135.998032 41.025955,132.022491 
	C41.013531,132.010529 41.033306,132.036789 41.394703,132.043427 
	C44.015923,129.578384 46.275742,127.106697 48.576427,124.628937 
	C48.617290,124.622871 48.597836,124.542564 48.874641,124.613052 
	C49.442551,124.459297 49.733650,124.235054 50.381210,123.961456 
	C51.347195,122.817368 51.956715,121.722641 52.609577,120.664368 
	C52.652920,120.700813 52.644741,120.587845 52.930099,120.603439 
	C53.309582,120.290802 53.403702,119.962578 53.541344,119.624146 
	C53.584866,119.613930 53.590057,119.524666 53.936115,119.566536 
	C55.537598,118.088432 56.793022,116.568451 58.024300,115.024239 
	C58.000153,115.000000 58.049671,115.047668 58.386395,115.027832 
	C59.343060,114.213066 59.962997,113.418152 60.749996,112.752106 
	C60.917057,112.880981 60.608421,112.593208 60.921570,112.600616 
	C61.506660,112.088272 61.778603,111.568527 62.025352,111.024384 
	C62.000153,111.000000 62.048820,111.050125 62.405159,111.024826 
	C64.520317,109.008949 66.279137,107.018372 68.018921,105.015152 
	C67.999893,105.002502 68.033501,105.035179 68.356003,105.009567 
	C68.966530,104.502716 69.254547,104.021484 69.542564,103.540253 
	C69.687195,103.661125 69.831818,103.781990 70.125641,103.774277 
	C72.904274,102.390114 75.956528,101.489159 75.387192,97.550560 
	C75.387192,97.550560 75.494965,97.526207 75.843002,97.566422 
	C76.637939,96.928398 77.084831,96.250168 77.575439,95.577911 
	C77.619156,95.583900 77.621284,95.495682 77.902969,95.539925 
	C78.296761,95.263512 78.408875,94.942856 78.563065,94.632614 
	C78.605125,94.643036 78.595596,94.556877 78.953972,94.600906 
	C81.371292,92.304192 83.430237,89.963463 85.534454,87.603638 
	C85.579720,87.584541 85.608978,87.490730 85.880791,87.580505 
	C86.450294,87.450310 86.747978,87.230339 87.293396,86.769867 
	C87.167656,85.265213 87.181152,83.616173 86.363358,82.793961 
	C71.249336,67.598343 56.127632,52.407864 40.808689,37.419544 
	C31.932764,28.735184 36.469448,22.760963 44.741974,16.822432 
	C49.161751,13.649642 52.956783,17.273590 57.297112,17.159571 
	C58.029270,17.830828 58.507820,18.389086 59.008293,19.281305 
	C59.687721,20.076609 60.345219,20.537954 61.001358,20.999687 
	C61.000000,21.000076 61.000614,20.997406 61.014534,21.320930 
	C61.496624,21.941593 61.964798,22.238729 62.444412,22.577583 
	C62.455856,22.619303 62.538631,22.594137 62.405556,22.955751 
	C63.206703,23.863253 64.140930,24.409138 65.075157,24.955025 
	C65.075157,24.955025 65.005638,24.992157 65.026001,25.316608 
	C66.511734,26.934673 67.977104,28.228287 69.451973,29.566673 
	C69.461472,29.611446 69.552429,29.601173 69.409218,29.967041 
	C70.534485,31.206779 71.802956,32.080650 73.071434,32.954525 
	C73.071434,32.954525 73.006485,32.996227 73.033020,33.292763 
	C73.698303,34.066666 74.337036,34.544033 74.987732,35.010700 
	C74.999695,35.000000 74.977402,35.021946 74.996979,35.341721 
	C75.481544,35.964935 75.946533,36.268379 76.210083,36.717239 
	C76.008644,36.862656 76.427719,36.596035 76.400856,36.914276 
	C76.906723,37.495602 77.439453,37.758686 77.986092,38.010696 
	C78.000000,37.999626 77.979347,38.028332 78.006378,38.352859 
	C78.687752,39.121838 79.342110,39.566284 79.997978,40.005596 
	C79.999496,40.000458 79.990005,40.006001 80.084023,40.246834 
	C80.470154,40.652046 80.762268,40.816425 81.054390,40.980804 
	C81.054390,40.980801 80.999763,40.997871 80.991760,41.341217 
	C85.462776,46.745548 89.807114,51.936199 94.490456,56.800465 
	C96.239250,58.616817 98.779022,59.671619 101.231956,61.178745 
	C101.984688,61.882706 102.463585,62.481590 102.978035,63.419212 
	C104.008514,64.505043 105.003441,65.252129 106.272697,65.990677 
	C106.909065,65.936554 107.271095,65.890991 107.930069,65.806366 
	C108.456978,65.459473 108.686966,65.151634 108.918167,64.888519 
	C108.919373,64.933235 108.836845,64.898705 109.104858,64.832748 
	C109.551285,64.459991 109.729706,64.153198 109.923508,63.891273 
	C109.938904,63.936150 109.848099,63.908630 110.113785,63.837898 
	C110.554367,63.459721 110.729271,63.152271 110.916519,62.890507 
	C110.928871,62.936192 110.839302,62.905602 111.106842,62.831963 
	C111.542213,62.444145 111.710052,62.129971 111.902695,61.864037 
	C111.927498,61.912277 111.824165,61.879215 112.094040,61.819252 
	C112.542770,61.452534 112.721619,61.145779 112.916084,60.885384 
	C112.931702,60.931740 112.839188,60.899914 113.106041,60.831924 
	C113.549736,60.457352 113.726578,60.150772 113.922127,59.886742 
	C113.940834,59.929291 113.849037,59.914658 114.129715,59.818825 
	C114.582718,59.380215 114.755035,59.037434 114.990021,58.514687 
	C115.201035,58.110172 115.406921,57.970322 115.978622,57.826626 
	C116.498337,57.381699 116.709763,57.025311 116.987183,56.491779 
	C117.202744,56.089973 117.411308,55.959854 117.968216,55.866695 
	C118.485870,55.505333 118.714157,55.201557 118.956604,54.942169 
	C118.970772,54.986561 118.896217,54.930653 119.150940,54.857777 
	C119.585854,54.493542 119.766037,54.202187 119.939125,53.952808 
	C119.932022,53.994785 119.909599,53.912548 120.293732,53.944290 
	C121.404228,52.935444 122.130585,51.894852 122.909004,50.878998 
	C122.961067,50.903740 122.846321,50.914982 123.128029,50.814445 
	C123.579704,50.366138 123.749672,50.018364 123.994812,49.492477 
	C124.232910,49.093422 124.450668,48.966705 125.007874,48.867279 
	C125.504105,48.488892 125.715729,48.177460 125.936455,47.910446 
	C125.945564,47.954865 125.862419,47.918648 126.125687,47.844666 
	C126.564186,47.464951 126.739426,47.159214 126.928757,46.897659 
	C126.942841,46.941833 126.854103,46.914890 127.117683,46.844414 
	C127.560211,46.471363 127.739151,46.168785 127.934204,45.912140 
	C127.950310,45.958076 127.862137,45.916798 128.124359,45.844498 
	C128.559067,45.467735 128.731583,45.163277 128.896423,44.921196 
	C128.888763,44.983570 128.867462,44.859596 129.256500,44.908958 
	C130.714615,43.587337 131.783676,42.216347 132.911621,40.877007 
	C132.970474,40.908653 132.837219,40.898300 133.103394,40.830841 
	C133.553299,40.460789 133.737030,40.158199 133.932861,39.898560 
	C133.944977,39.941513 133.858292,39.920277 134.120956,39.844040 
	C134.558655,39.461712 134.733688,39.155628 134.922150,38.892258 
	C134.935562,38.934975 134.847229,38.920258 135.125595,38.818649 
	C135.577179,38.374577 135.750381,38.032108 135.996979,37.505516 
	C136.228531,37.084858 136.449219,36.952759 137.089828,36.921703 
	C137.932098,36.241226 138.416962,35.564140 138.947220,34.917187 
	C138.992615,34.947315 138.884842,34.931263 139.141510,34.855545 
	C139.570877,34.481094 139.743561,34.182362 139.938858,33.936424 
	C139.961472,33.989220 139.876251,33.912197 140.133072,33.846401 
	C140.574112,33.491837 140.758331,33.203068 140.973099,32.946823 
	C141.003647,32.979355 140.921936,32.943523 141.172089,32.866478 
	C141.598434,32.500351 141.774628,32.211269 141.972565,31.955564 
	C141.994339,31.988937 141.921005,31.957741 142.189758,31.840651 
	C142.613342,31.375877 142.768188,31.028193 143.028381,30.447445 
	C143.651611,29.782326 144.169525,29.350273 145.089508,28.945936 
	C146.289566,27.935917 147.087570,26.898182 147.924469,25.898129 
	C147.963379,25.935810 147.856064,25.920998 148.117828,25.850025 
	C148.564041,25.481588 148.748505,25.184126 148.949539,24.930387 
	C148.966095,24.974112 148.883118,24.931004 149.141876,24.853642 
	C149.574707,24.474474 149.748810,24.172667 149.942902,23.914171 
	C149.962891,23.957483 149.873322,23.924637 150.134109,23.849123 
	C150.573151,23.471462 150.751419,23.169313 150.938797,22.920532 
	C150.947922,22.973902 150.875198,22.893667 151.254349,22.933542 
	C155.068771,22.416878 157.006546,20.552517 156.944168,16.950716 
	C156.968414,16.981218 156.929123,16.925188 157.347717,16.955105 
	C163.705841,15.189057 169.107346,15.332568 173.403137,20.739784 
	C174.227341,21.777225 175.940979,22.108055 177.232544,22.794037 
	C177.220810,22.823200 177.164688,22.851542 177.096130,23.319191 
	C177.063065,27.232775 177.098572,30.678713 177.154480,34.097374 
	C177.174896,34.070103 177.170456,34.138252 176.811127,34.116795 
	C174.313797,36.748055 172.175781,39.400768 170.019562,42.026978 
	C170.001373,42.000469 170.054337,42.036938 169.694824,42.042206 
	C164.034332,44.599972 160.090332,48.430367 158.027222,54.025711 
	C158.015625,54.008461 158.053329,54.018856 157.804657,54.109032 
	C157.382278,54.495171 157.208572,54.791134 157.034866,55.087097 
	C157.034866,55.087093 157.008774,55.013145 156.702606,55.037407 
	C156.132523,55.554386 155.868637,56.047104 155.604736,56.539825 
	C155.604736,56.539825 155.493073,56.557266 155.155533,56.427994 
	C150.197006,58.958687 145.861649,61.877392 144.563705,67.581039 
	C144.528336,67.582451 144.457748,67.576927 144.101456,67.411751 
	C141.825546,69.512466 139.905930,71.778351 137.914932,74.271759 
	C137.670944,74.799561 137.412277,74.966446 136.745972,75.007233 
	C135.967560,75.393570 135.510696,75.772606 135.024475,76.491150 
	C132.292160,79.873436 129.589188,82.916206 126.640030,86.236122 
	C128.584412,87.982498 130.277420,89.503098 131.970428,91.023689 
	C131.970428,91.023689 131.976807,91.025146 132.013657,91.296509 
	C132.355316,91.724091 132.660141,91.880310 132.964951,92.036530 
	C132.964951,92.036530 133.000000,92.000305 133.070740,92.321396 
	C134.090622,93.426071 135.039749,94.209648 135.988876,94.993225 
	C136.159058,95.276505 136.329254,95.559776 136.785522,96.196655 
	C137.381516,96.695564 137.691452,96.840858 138.001373,96.986153 
	C138.001373,96.986153 137.998901,97.001587 138.059296,97.255951 
	C138.414261,97.668381 138.708801,97.826454 139.003357,97.984528 
	C139.003357,97.984528 138.998779,98.000916 139.104095,98.314651 
	C141.135071,100.420685 143.060715,102.212990 144.986359,104.005295 
	C144.986359,104.005295 144.998993,104.000916 145.044922,104.266205 
	C145.387955,104.688843 145.685059,104.846191 145.982162,105.003540 
	C145.982162,105.003540 145.996948,105.003242 146.087311,105.332397 
	C148.784378,108.105995 151.391083,110.550438 153.997772,112.994881 
	C153.997772,112.994881 153.999390,113.000610 154.091583,113.301682 
	C155.120102,114.395943 156.056442,115.189140 156.992798,115.982330 
	C156.992798,115.982330 156.994415,116.005630 157.091034,116.316460 
	C158.456085,117.750618 159.724533,118.873940 160.992966,119.997269 
	C161.175110,120.275749 161.357254,120.554230 161.873230,121.224625 
	C163.473328,122.732857 164.739594,123.849182 166.005844,124.965508 
	C166.005844,124.965508 165.994186,125.002495 166.047974,125.263176 
	C166.402161,125.672859 166.702545,125.821854 167.002945,125.970856 
	C167.193451,126.241920 167.383972,126.512978 167.837479,127.152863 
	C168.396866,127.679184 168.693268,127.836670 168.989670,127.994156 
	C168.989670,127.994156 168.996826,128.002884 169.050476,128.265167 
	C169.406998,128.671570 169.709854,128.815689 170.012726,128.959793 
	C170.012726,128.959793 169.998352,129.001892 170.067047,129.250580 
	C170.434174,129.642654 170.732574,129.786026 171.030991,129.929413 
	C171.030991,129.929413 171.003906,129.993683 171.104065,130.284393 
	C172.142685,131.363602 173.081131,132.152100 174.019592,132.940613 
	C174.019592,132.940613 174.001465,132.998154 174.114990,133.310181 
	C175.734406,135.553497 177.240295,137.484772 178.746201,139.416046 
z"/>
<path fill="#D03D46" opacity="1.000000" stroke="none" 
	d="
M57.043499,17.046572 
	C52.956783,17.273590 49.161751,13.649642 44.741974,16.822432 
	C36.469448,22.760963 31.932764,28.735184 40.808689,37.419544 
	C56.127632,52.407864 71.249336,67.598343 86.363358,82.793961 
	C87.181152,83.616173 87.167656,85.265213 87.022751,86.763901 
	C86.324196,87.001381 86.144005,87.004326 86.030090,86.651245 
	C82.432289,82.468353 78.768227,78.641479 75.104156,74.814598 
	C74.329063,73.922523 73.553978,73.030449 72.379387,71.715981 
	C70.885330,70.353828 69.790764,69.414070 68.696205,68.474312 
	C68.696205,68.474312 68.567749,68.424110 68.432129,68.082352 
	C66.897980,66.417145 65.499451,65.093689 64.100922,63.770233 
	C63.318375,62.891426 62.535828,62.012623 61.364635,60.733521 
	C60.224979,59.708420 59.473961,59.083618 58.722942,58.458817 
	C58.722942,58.458817 58.588200,58.402039 58.450806,58.075073 
	C57.467258,56.992111 56.621113,56.236115 55.774967,55.480114 
	C55.774967,55.480114 55.638378,55.366795 55.484421,55.024651 
	C53.866066,53.334034 52.401672,51.985565 50.937275,50.637096 
	C50.184277,49.802303 49.431282,48.967506 48.266094,47.674297 
	C45.948299,45.457748 44.042698,43.699612 42.137096,41.941475 
	C40.395531,40.025478 38.653965,38.109478 36.603050,35.713516 
	C35.965302,34.793121 35.636909,34.352695 35.308517,33.912270 
	C35.154060,33.482128 34.999607,33.051991 34.758354,32.074417 
	C34.637466,31.168961 34.454357,30.920887 34.122227,30.782768 
	C34.128731,29.463318 34.135235,28.143866 34.362099,26.188107 
	C35.771133,23.415596 36.959808,21.279392 38.148483,19.143187 
	C38.148483,19.143187 38.041843,19.003082 38.335503,18.992371 
	C38.816040,18.684761 39.002918,18.387863 39.189793,18.090965 
	C39.753716,17.646404 40.317642,17.201847 41.386887,16.412395 
	C48.433537,12.603360 51.987545,12.833018 57.043499,17.046572 
z"/>
<path fill="#FBD4D2" opacity="1.000000" stroke="none" 
	d="
M124.723267,48.934235 
	C124.450668,48.966705 124.232910,49.093422 123.717796,49.604477 
	C123.192505,50.234715 123.019409,50.574848 122.846313,50.914978 
	C122.846321,50.914982 122.961067,50.903740 122.611908,50.981064 
	C121.478355,52.009773 120.693977,52.961159 119.909599,53.912544 
	C119.909599,53.912548 119.932022,53.994785 119.667206,54.000687 
	C119.233665,54.314610 119.064949,54.622635 118.896225,54.930656 
	C118.896217,54.930653 118.970772,54.986561 118.663651,54.986488 
	C118.130646,55.299034 117.904747,55.611656 117.678848,55.924278 
	C117.411308,55.959854 117.202744,56.089973 116.696777,56.606541 
	C116.117035,57.237350 115.893684,57.576256 115.670334,57.915161 
	C115.406921,57.970322 115.201035,58.110172 114.716766,58.624523 
	C114.203583,59.247772 114.026306,59.581215 113.849030,59.914658 
	C113.849037,59.914658 113.940834,59.929291 113.650757,59.947689 
	C113.186859,60.277363 113.013023,60.588638 112.839188,60.899914 
	C112.839188,60.899914 112.931702,60.931740 112.647842,60.948463 
	C112.184052,61.269863 112.004112,61.574539 111.824165,61.879215 
	C111.824165,61.879215 111.927498,61.912277 111.628418,61.924999 
	C111.165985,62.260349 111.002647,62.582973 110.839302,62.905602 
	C110.839302,62.905602 110.928871,62.936192 110.650818,62.963707 
	C110.197876,63.297028 110.022987,63.602833 109.848099,63.908630 
	C109.848099,63.908630 109.938904,63.936150 109.650589,63.952858 
	C109.187134,64.279282 109.011986,64.588989 108.836845,64.898705 
	C108.836845,64.898705 108.919373,64.933235 108.632706,64.943581 
	C108.108406,65.251091 107.870766,65.548256 107.633133,65.845428 
	C107.271095,65.890991 106.909065,65.936554 106.140854,65.713440 
	C104.803947,64.656670 103.873215,63.868572 102.942482,63.080475 
	C102.463585,62.481590 101.984688,61.882706 101.201996,60.925964 
	C100.892982,60.398750 100.887749,60.229401 100.882515,60.060051 
	C109.205009,64.036240 112.816658,56.752132 117.561676,52.772923 
	C121.612144,49.376160 125.013649,45.199474 128.643433,41.312885 
	C129.271210,40.640697 129.605927,39.694809 130.439240,38.484314 
	C133.215668,36.092148 135.628860,34.091007 138.042053,32.089867 
	C143.545822,26.455564 148.925308,20.691977 154.600403,15.235881 
	C157.957550,12.008294 162.207275,11.914506 166.359375,13.580608 
	C163.112823,14.905438 160.020966,15.915316 156.929123,16.925190 
	C156.929123,16.925188 156.968414,16.981218 156.625122,17.042221 
	C154.479630,19.033373 152.677414,20.963520 150.875198,22.893667 
	C150.875198,22.893667 150.947922,22.973902 150.668365,22.984146 
	C150.216980,23.304472 150.045151,23.614553 149.873322,23.924635 
	C149.873322,23.924637 149.962891,23.957483 149.670868,23.971794 
	C149.213608,24.301069 149.048370,24.616037 148.883118,24.931004 
	C148.883118,24.931004 148.966095,24.974112 148.681198,24.990246 
	C148.216217,25.311253 148.036148,25.616129 147.856079,25.921001 
	C147.856064,25.920998 147.963379,25.935810 147.618423,25.996628 
	C146.411453,27.011038 145.549454,27.964630 144.687454,28.918221 
	C144.169525,29.350273 143.651611,29.782326 142.760590,30.569218 
	C142.231995,31.268618 142.076492,31.613180 141.921005,31.957741 
	C141.921005,31.957741 141.994339,31.988937 141.709106,32.016350 
	C141.256546,32.343681 141.089249,32.643600 140.921936,32.943523 
	C140.921936,32.943523 141.003647,32.979355 140.694214,32.979485 
	C140.215286,33.290474 140.045761,33.601337 139.876251,33.912197 
	C139.876251,33.912197 139.961472,33.989220 139.669220,33.993912 
	C139.212936,34.309490 139.048889,34.620377 138.884842,34.931263 
	C138.884842,34.931263 138.992615,34.947315 138.648972,34.999596 
	C137.781021,35.676285 137.256714,36.300690 136.732422,36.925095 
	C136.449219,36.952759 136.228531,37.084858 135.720947,37.613663 
	C135.196762,38.244041 135.022003,38.582150 134.847229,38.920258 
	C134.847229,38.920258 134.935562,38.934975 134.658783,38.968033 
	C134.207443,39.307487 134.032867,39.613880 133.858292,39.920273 
	C133.858292,39.920277 133.944977,39.941513 133.661118,39.959045 
	C133.197250,40.283821 133.017242,40.591061 132.837219,40.898300 
	C132.837219,40.898300 132.970474,40.908653 132.608612,40.983475 
	C131.120331,42.325394 129.993896,43.592495 128.867462,44.859596 
	C128.867462,44.859596 128.888763,44.983570 128.623383,44.975712 
	C128.192719,45.284168 128.027435,45.600483 127.862137,45.916798 
	C127.862137,45.916798 127.950310,45.958076 127.665298,45.976128 
	C127.204887,46.301083 127.029495,46.607986 126.854103,46.914890 
	C126.854103,46.914890 126.942841,46.941833 126.658127,46.961643 
	C126.203087,47.293850 126.032753,47.606247 125.862419,47.918648 
	C125.862419,47.918648 125.945564,47.954865 125.652603,47.974007 
	C125.147507,48.306843 124.935387,48.620541 124.723267,48.934235 
z"/>
<path fill="#FDEBE8" opacity="1.000000" stroke="none" 
	d="
M70.025528,141.988449 
	C70.351402,141.940247 70.615837,141.786423 71.182800,141.241455 
	C71.716156,140.641724 71.885551,140.327545 72.054955,140.013367 
	C72.054955,140.013367 71.999641,140.001083 72.311333,139.926086 
	C73.430840,138.907135 74.238655,137.963196 75.046478,137.019257 
	C75.046478,137.019257 74.999672,136.998154 75.272072,136.966034 
	C75.718262,136.630264 75.892052,136.326614 76.065834,136.022980 
	C76.065834,136.022980 76.003990,136.003113 76.320198,135.928925 
	C77.458603,134.901337 78.280800,133.947952 79.102989,132.994568 
	C79.414215,132.946854 79.660545,132.794327 80.202515,132.258820 
	C80.730797,131.660324 80.898552,131.340057 81.066315,131.019791 
	C81.066315,131.019791 81.001663,131.008606 81.312637,130.922729 
	C82.439377,129.904037 83.255150,128.971252 84.070923,128.038452 
	C84.070923,128.038452 84.006828,128.008331 84.280365,127.973396 
	C84.729111,127.635780 84.904335,127.333099 85.079544,127.030426 
	C85.079544,127.030418 85.009811,127.008766 85.314125,126.952301 
	C86.083138,126.260880 86.547836,125.625923 87.012527,124.990974 
	C87.012527,124.990974 86.995392,124.995010 87.286423,124.927261 
	C88.071564,124.249283 88.565674,123.639046 89.059784,123.028809 
	C89.059792,123.028809 89.001953,123.003067 89.306534,122.942490 
	C90.095566,122.266296 90.580009,121.650681 91.064461,121.035065 
	C91.064461,121.035065 91.004456,121.004951 91.279724,120.971420 
	C91.724503,120.632439 91.894020,120.326973 92.063538,120.021515 
	C92.063538,120.021515 92.003502,120.002762 92.284073,119.968948 
	C92.742523,119.622742 92.920418,119.310356 93.098312,118.997963 
	C93.416565,118.945633 93.665138,118.785278 94.173706,118.295624 
	C94.670174,118.056694 94.836952,118.039055 95.003418,118.349792 
	C95.001297,119.115906 94.999474,119.553635 94.997650,119.991364 
	C90.211601,125.079247 85.392403,130.136505 80.651634,135.266235 
	C77.696457,138.463867 74.890701,141.799164 71.958855,145.018906 
	C70.043304,147.122559 68.132385,149.251999 66.026237,151.156265 
	C60.825287,155.858673 55.490818,160.582916 47.950417,160.556381 
	C46.330997,160.550690 44.718197,158.664993 43.476311,157.354370 
	C47.853275,158.730316 51.759872,159.215851 55.374462,156.123001 
	C55.374462,156.123001 55.675053,156.119171 56.068779,156.017303 
	C56.657173,155.615158 56.851841,155.314880 57.046509,155.014603 
	C57.046505,155.014603 56.997883,155.000900 57.295471,154.930054 
	C58.079098,154.246872 58.565136,153.634521 59.051178,153.022156 
	C59.051186,153.022171 59.001823,152.998627 59.298935,152.937729 
	C60.078697,152.256409 60.561340,151.636002 61.043987,151.015579 
	C61.043987,151.015579 60.999218,150.996582 61.272758,150.967346 
	C61.726509,150.637894 61.906715,150.337662 62.086922,150.037430 
	C62.086918,150.037430 62.010178,150.013916 62.332069,149.946518 
	C63.440948,148.917480 64.227928,147.955826 65.014915,146.994186 
	C65.014915,146.994186 64.994904,146.996689 65.286980,146.912842 
	C66.085419,146.214462 66.591782,145.599930 67.098137,144.985382 
	C67.411842,144.936096 67.661674,144.782761 68.217865,144.218018 
	C69.067238,143.269913 69.546387,142.629181 70.025528,141.988449 
z"/>
<path fill="#FCECEA" opacity="1.000000" stroke="none" 
	d="
M140.867462,139.448196 
	C140.903168,139.695343 141.026642,139.885498 141.509308,140.357666 
	C142.119400,140.890961 142.458023,141.085236 142.796661,141.279526 
	C142.796661,141.279526 142.830170,141.154190 142.849319,141.454224 
	C143.176956,141.925552 143.485458,142.096878 143.793945,142.268188 
	C143.793945,142.268188 143.848389,142.147934 143.855377,142.442276 
	C144.162979,142.918259 144.463593,143.099899 144.764206,143.281540 
	C144.764206,143.281540 144.838516,143.002640 144.866455,143.421783 
	C145.506607,144.314896 146.118835,144.788895 146.731049,145.262878 
	C146.731049,145.262878 146.878952,145.013702 146.879181,145.429840 
	C147.506027,146.317947 148.132629,146.789948 148.759247,147.261932 
	C148.759247,147.261932 148.917358,147.143478 148.891449,147.441589 
	C149.172302,147.917343 149.479050,148.094986 149.785812,148.272629 
	C149.785812,148.272629 149.842972,148.167389 149.873566,148.465210 
	C150.224365,148.982758 150.544571,149.202499 150.864761,149.422241 
	C154.065872,152.175888 157.266998,154.929520 160.737213,158.105133 
	C161.006317,158.527100 161.003525,158.995972 161.003525,158.995972 
	C153.240692,159.504532 149.894241,153.533203 145.730179,148.681015 
	C143.543137,146.132538 141.015961,143.876556 138.818863,141.335892 
	C137.367050,139.657059 136.228867,137.706985 134.987610,135.428696 
	C135.024948,134.979034 135.197754,134.801437 135.490814,134.936249 
	C137.082001,136.148346 138.380142,137.225662 139.678284,138.302963 
	C139.678284,138.302963 139.889587,138.296875 139.872482,138.564758 
	C140.192734,139.037811 140.530106,139.243011 140.867462,139.448196 
z"/>
<path fill="#FDF1F0" opacity="1.000000" stroke="none" 
	d="
M74.945953,75.161560 
	C78.768227,78.641479 82.432289,82.468353 85.879555,86.726654 
	C85.662750,87.158073 85.608978,87.490730 85.608978,87.490730 
	C85.608978,87.490730 85.579720,87.584541 85.237976,87.721924 
	C82.796013,90.091827 80.695801,92.324348 78.595596,94.556877 
	C78.595596,94.556877 78.605125,94.643036 78.345123,94.694824 
	C77.804901,94.918533 77.650284,95.168221 77.621284,95.495682 
	C77.621284,95.495682 77.619156,95.583900 77.329903,95.639938 
	C76.727386,95.810135 76.414124,95.924301 76.100868,96.038467 
	C75.258957,95.703896 74.417053,95.369324 73.755638,95.106476 
	C76.964050,92.087448 79.983490,89.246246 83.388268,86.042458 
	C80.677307,83.839859 78.642708,81.535545 76.091255,80.289848 
	C73.325012,78.939293 73.919037,77.448433 74.945953,75.161560 
z"/>
<path fill="#FEE1DD" opacity="1.000000" stroke="none" 
	d="
M137.067535,74.999939 
	C137.412277,74.966446 137.670944,74.799561 138.218903,74.164993 
	C139.727905,72.883774 140.861557,71.936844 141.995224,70.989914 
	C140.877182,73.193642 140.327087,76.356033 138.533112,77.418861 
	C133.430862,80.441673 131.716232,84.660080 131.994217,90.598175 
	C130.277420,89.503098 128.584412,87.982498 126.640030,86.236122 
	C129.589188,82.916206 132.292160,79.873436 135.330765,76.424927 
	C136.133453,75.679436 136.600494,75.339691 137.067535,74.999939 
z"/>
<path fill="#FCECEA" opacity="1.000000" stroke="none" 
	d="
M129.847946,130.138123 
	C125.377327,128.152496 120.550827,126.663086 118.747841,121.252686 
	C118.513733,120.550179 117.026855,120.353233 116.509026,119.639893 
	C115.199799,117.836372 114.112045,115.872070 112.950966,113.508133 
	C112.966370,113.044075 113.101448,112.910126 113.397720,113.018051 
	C114.679405,113.862762 115.664825,114.599541 116.650238,115.336327 
	C116.650238,115.336327 116.730309,115.348183 116.769493,115.581848 
	C117.092224,115.993912 117.375763,116.172318 117.659302,116.350731 
	C117.659302,116.350731 117.808052,116.416306 117.825836,116.679718 
	C118.476318,117.387810 119.109016,117.832474 119.741722,118.277138 
	C119.741722,118.277138 119.956177,118.005798 119.919739,118.457916 
	C123.321121,122.542259 126.758942,126.174477 130.110260,129.890289 
	C130.023743,129.973877 129.847946,130.138123 129.847946,130.138123 
z"/>
<path fill="#FDE4E1" opacity="1.000000" stroke="none" 
	d="
M179.005280,32.013069 
	C179.587128,36.007858 178.286545,38.771458 174.675064,41.086411 
	C172.012268,42.793259 170.362610,46.005936 167.954758,48.212959 
	C166.481064,49.563747 164.427536,50.281929 162.438950,50.832092 
	C164.847107,47.598949 167.450714,44.817940 170.054337,42.036934 
	C170.054337,42.036938 170.001373,42.000469 170.340454,41.924641 
	C172.843155,39.278622 175.006805,36.708435 177.170456,34.138252 
	C177.170456,34.138252 177.174896,34.070103 177.422928,33.975212 
	C178.115723,33.257904 178.560501,32.635483 179.005280,32.013069 
z"/>
<path fill="#FEDFDC" opacity="1.000000" stroke="none" 
	d="
M57.297112,17.159571 
	C51.987545,12.833018 48.433537,12.603360 41.521801,16.175606 
	C43.157776,12.472422 50.261421,9.899797 54.694847,12.716970 
	C58.739483,15.287092 61.618656,19.691324 64.720398,23.571228 
	C63.799080,23.434885 63.168858,23.014511 62.538631,22.594137 
	C62.538631,22.594137 62.455856,22.619303 62.367783,22.309650 
	C61.853348,21.665798 61.426979,21.331602 61.000614,20.997406 
	C61.000614,20.997406 61.000000,21.000076 60.901703,20.717537 
	C60.197731,19.939114 59.592052,19.443228 58.986370,18.947344 
	C58.507820,18.389086 58.029270,17.830828 57.297112,17.159571 
z"/>
<path fill="#D03D46" opacity="1.000000" stroke="none" 
	d="
M100.670341,59.952244 
	C100.887749,60.229401 100.892982,60.398750 100.928169,60.820885 
	C98.779022,59.671619 96.239250,58.616817 94.490456,56.800465 
	C89.807114,51.936199 85.462776,46.745548 81.007019,41.317005 
	C81.824677,41.557201 82.619064,42.164955 83.782692,43.194878 
	C85.087944,44.428719 86.023972,45.240387 86.959991,46.052055 
	C86.959991,46.052055 86.994865,45.997242 87.049438,46.263168 
	C87.401665,46.688324 87.699310,46.847557 87.996964,47.006790 
	C89.124413,48.250050 90.251854,49.493313 91.737289,51.155846 
	C92.648689,52.083302 93.202103,52.591488 93.916321,53.394524 
	C96.045006,55.469734 98.012878,57.250099 99.980759,59.030460 
	C100.066658,59.344742 100.225792,59.616066 100.670341,59.952244 
z"/>
<path fill="#FCFBF9" opacity="1.000000" stroke="none" 
	d="
M137.829758,31.789419 
	C135.628860,34.091007 133.215668,36.092148 130.447113,38.124172 
	C130.374069,35.813080 129.903732,32.800549 131.191864,31.354656 
	C132.117386,30.315792 135.391220,31.369022 137.829758,31.789419 
z"/>
<path fill="#FEDAD7" opacity="1.000000" stroke="none" 
	d="
M169.082458,157.867050 
	C174.243988,153.459152 180.227234,149.369003 178.954926,140.445862 
	C179.568161,142.414261 180.874130,144.901810 180.581146,147.184097 
	C179.937622,152.196884 174.093140,157.412888 169.082458,157.867050 
z"/>
<path fill="#D02D38" opacity="1.000000" stroke="none" 
	d="
M157.347717,16.955109 
	C160.020966,15.915316 163.112823,14.905438 166.626251,13.825077 
	C167.461456,13.881166 167.875046,14.007743 168.778763,14.457306 
	C170.648743,15.663094 172.028610,16.545893 173.408478,17.428692 
	C173.408478,17.428692 173.515579,17.482134 173.684113,17.811991 
	C174.983200,19.682856 176.113739,21.223864 177.244278,22.764872 
	C175.940979,22.108055 174.227341,21.777225 173.403137,20.739784 
	C169.107346,15.332568 163.705841,15.189057 157.347717,16.955109 
z"/>
<path fill="#FDEBE8" opacity="1.000000" stroke="none" 
	d="
M50.003315,121.003166 
	C54.707104,116.318069 59.410892,111.632973 64.543121,106.962662 
	C64.971558,106.977440 65.123215,107.122787 64.989853,107.409637 
	C63.920597,108.814369 62.984707,109.932243 62.048820,111.050125 
	C62.048820,111.050125 62.000153,111.000000 61.750641,111.099319 
	C61.203564,111.663498 60.905991,112.128357 60.608421,112.593208 
	C60.608421,112.593208 60.917057,112.880981 60.461807,112.845428 
	C59.354259,113.555801 58.701965,114.301735 58.049675,115.047668 
	C58.049671,115.047668 58.000153,115.000000 57.717255,115.136337 
	C56.152924,116.690002 54.871490,118.107338 53.590057,119.524666 
	C53.590057,119.524666 53.584866,119.613930 53.323318,119.701828 
	C52.785019,119.983780 52.646008,120.249817 52.644741,120.587845 
	C52.644741,120.587845 52.652920,120.700813 52.342377,120.713806 
	C51.589077,121.043343 51.146317,121.359886 50.528500,121.508102 
	C50.353443,121.339790 50.003315,121.003166 50.003315,121.003166 
z"/>
<path fill="#FDE4E1" opacity="1.000000" stroke="none" 
	d="
M177.232544,22.794037 
	C176.113739,21.223864 174.983200,19.682856 173.711426,17.865246 
	C180.328873,18.229725 183.315033,23.263615 179.515228,30.516071 
	C178.452469,27.756027 177.808578,25.303783 177.164688,22.851540 
	C177.164688,22.851542 177.220810,22.823200 177.232544,22.794037 
z"/>
<path fill="#C73C46" opacity="1.000000" stroke="none" 
	d="
M54.936302,156.071503 
	C51.759872,159.215851 47.853275,158.730316 43.446342,157.005341 
	C43.042412,156.947266 43.031284,156.981033 42.882828,156.697556 
	C42.156193,156.171478 41.578007,155.928879 40.999821,155.686279 
	C40.999821,155.686279 40.633648,155.452240 40.388596,155.580231 
	C40.143547,155.708237 40.144360,155.574707 40.144360,155.574707 
	C40.019833,155.092819 39.895309,154.610916 39.371025,153.713531 
	C38.243546,152.273788 37.515827,151.249527 36.788113,150.225250 
	C37.678928,150.492950 38.916523,150.476349 39.405834,151.073196 
	C43.417130,155.966080 48.396767,157.636322 54.936302,156.071503 
z"/>
<path fill="#D02D38" opacity="1.000000" stroke="none" 
	d="
M169.694824,42.042206 
	C167.450714,44.817940 164.847107,47.598949 162.140717,50.697250 
	C161.755829,51.190891 161.473709,51.367245 160.810974,51.872414 
	C159.633163,52.815136 158.835983,53.429050 158.038803,54.042961 
	C160.090332,48.430367 164.034332,44.599972 169.694824,42.042206 
z"/>
<path fill="#D02D38" opacity="1.000000" stroke="none" 
	d="
M144.599075,67.579620 
	C145.861649,61.877392 150.197006,58.958687 155.166840,56.483356 
	C155.490128,57.002457 155.375412,57.302891 154.789276,57.896500 
	C153.269760,59.481544 152.132477,60.739368 150.995193,61.997192 
	C150.995193,61.997192 151.000000,62.000000 150.684265,62.101212 
	C148.445358,63.994816 146.522217,65.787216 144.599075,67.579620 
z"/>
<path fill="#FDE4E1" opacity="1.000000" stroke="none" 
	d="
M144.563705,67.581032 
	C146.522217,65.787216 148.445358,63.994816 150.682861,62.098862 
	C150.601364,68.045715 149.146164,69.727905 144.269257,69.039230 
	C144.213898,68.199440 144.335815,67.888184 144.457748,67.576927 
	C144.457748,67.576927 144.528336,67.582451 144.563705,67.581032 
z"/>
<path fill="#FCECEA" opacity="1.000000" stroke="none" 
	d="
M95.367508,119.987198 
	C94.999474,119.553635 95.001297,119.115906 95.037720,118.103882 
	C95.072334,117.529579 95.089958,117.033386 95.089958,117.033386 
	C95.089958,117.033386 95.018898,117.013412 95.298187,116.982132 
	C95.771423,116.646805 95.965378,116.342751 96.159332,116.038704 
	C96.481979,116.001701 96.720795,115.840515 97.193733,115.316399 
	C97.511688,115.077660 97.998421,114.998680 98.366486,114.995277 
	C100.145798,114.651184 101.557037,114.310486 102.974571,113.975784 
	C102.980865,113.981781 102.991913,113.992210 102.991913,113.992210 
	C100.573730,115.989151 98.155548,117.986092 95.367508,119.987198 
z"/>
<path fill="#C8434B" opacity="1.000000" stroke="none" 
	d="
M41.038383,132.034470 
	C39.028751,135.998032 37.019119,139.961594 34.680511,144.041199 
	C34.268009,143.378021 34.184486,142.598770 34.330189,141.188446 
	C35.134499,139.081543 35.709587,137.605743 36.284676,136.129929 
	C36.583157,136.031937 36.803326,135.842804 37.303978,135.230103 
	C38.787979,133.943298 39.913181,132.988892 41.038383,132.034470 
z"/>
<path fill="#FDEBE8" opacity="1.000000" stroke="none" 
	d="
M43.834969,127.813667 
	C43.665379,123.980782 44.876041,121.245529 49.621422,121.010345 
	C50.003315,121.003166 50.353443,121.339790 50.369041,121.754089 
	C49.904221,122.777191 49.423801,123.385986 48.796371,124.093491 
	C48.649368,124.192200 48.597836,124.542564 48.597836,124.542564 
	C48.597836,124.542564 48.617290,124.622871 48.285332,124.733658 
	C46.675228,125.937111 45.397079,127.029770 44.046951,128.046143 
	C43.974968,127.969864 43.834969,127.813667 43.834969,127.813667 
z"/>
<path fill="#FDF1F0" opacity="1.000000" stroke="none" 
	d="
M41.850796,42.134529 
	C44.042698,43.699612 45.948299,45.457748 47.963608,47.521866 
	C44.407143,49.081768 41.781822,46.863243 41.850796,42.134529 
z"/>
<path fill="#FDEBE8" opacity="1.000000" stroke="none" 
	d="
M41.025955,132.022491 
	C39.913181,132.988892 38.787979,133.943298 37.364864,135.016327 
	C36.411228,130.487579 39.245979,128.780655 43.477562,127.881508 
	C43.834969,127.813667 43.974968,127.969864 43.914879,128.333435 
	C42.914295,129.810272 41.973801,130.923538 41.033306,132.036789 
	C41.033306,132.036789 41.013531,132.010529 41.025955,132.022491 
z"/>
<path fill="#FDF1F0" opacity="1.000000" stroke="none" 
	d="
M50.571167,50.779221 
	C52.401672,51.985565 53.866066,53.334034 55.432663,54.952568 
	C50.756222,56.035145 49.527073,55.043190 50.571167,50.779221 
z"/>
<path fill="#FEDAD7" opacity="1.000000" stroke="none" 
	d="
M154.011230,112.627945 
	C151.391083,110.550438 148.784378,108.105995 146.087463,105.339783 
	C148.673050,107.432335 151.348862,109.846672 154.011230,112.627945 
z"/>
<path fill="#D02D38" opacity="1.000000" stroke="none" 
	d="
M177.096130,23.319189 
	C177.808578,25.303783 178.452469,27.756027 179.155853,30.618137 
	C179.150848,31.185883 179.086304,31.343758 179.013519,31.757349 
	C178.560501,32.635483 178.115723,33.257904 177.402512,34.002487 
	C177.098572,30.678713 177.063065,27.232775 177.096130,23.319189 
z"/>
<path fill="#D02D38" opacity="1.000000" stroke="none" 
	d="
M144.101456,67.411751 
	C144.335815,67.888184 144.213898,68.199440 144.045731,68.762054 
	C143.409378,69.494011 142.819290,69.974617 142.112213,70.722565 
	C140.861557,71.936844 139.727905,72.883774 138.290283,73.937469 
	C139.905930,71.778351 141.825546,69.512466 144.101456,67.411751 
z"/>
<path fill="#FBD4D2" opacity="1.000000" stroke="none" 
	d="
M99.986633,58.652641 
	C98.012878,57.250099 96.045006,55.469734 94.219086,53.365467 
	C94.563499,53.033348 94.765953,53.025131 94.968399,53.016914 
	C98.673477,52.829453 99.480049,55.411621 99.986633,58.652641 
z"/>
<path fill="#FDEBE8" opacity="1.000000" stroke="none" 
	d="
M36.802444,150.220612 
	C37.515827,151.249527 38.243546,152.273788 39.111576,153.588547 
	C36.271454,153.951172 32.492775,154.842758 35.186108,149.296417 
	C36.004810,149.448944 36.409634,149.820343 36.814453,150.191757 
	C36.814453,150.191757 36.816784,150.215958 36.802444,150.220612 
z"/>
<path fill="#FCECEA" opacity="1.000000" stroke="none" 
	d="
M134.940369,135.069580 
	C132.008026,135.134796 129.676361,134.516037 129.900940,130.517593 
	C129.847946,130.138123 130.023743,129.973877 130.386261,129.999481 
	C131.394852,130.454208 132.040955,130.883347 132.687042,131.312500 
	C132.687042,131.312500 132.964935,131.237854 132.890350,131.515778 
	C133.116013,131.969269 133.416229,132.144836 133.716461,132.320404 
	C133.716461,132.320404 133.692444,132.054535 133.773972,132.468399 
	C134.302917,133.521988 134.750336,134.161713 135.197754,134.801437 
	C135.197754,134.801437 135.024948,134.979034 134.940369,135.069580 
z"/>
<path fill="#FEDFDC" opacity="1.000000" stroke="none" 
	d="
M66.980278,26.015190 
	C70.055634,25.728561 72.611671,26.066582 71.718452,30.543888 
	C70.800102,30.459425 70.176270,30.030300 69.552429,29.601173 
	C69.552429,29.601173 69.461472,29.611446 69.358505,29.276001 
	C68.497124,27.965433 67.738701,26.990311 66.980278,26.015190 
z"/>
<path fill="#C94A4F" opacity="1.000000" stroke="none" 
	d="
M75.163193,97.611961 
	C75.956528,101.489159 72.904274,102.390114 69.909454,103.596466 
	C69.674583,103.214531 69.805092,102.881844 70.302628,102.199135 
	C71.164162,101.253632 71.658653,100.658142 72.419754,99.945770 
	C73.158165,99.234123 73.629982,98.639374 74.101799,98.044632 
	C74.424217,98.018486 74.703354,97.894730 75.163193,97.611961 
z"/>
<path fill="#FEDAD7" opacity="1.000000" stroke="none" 
	d="
M145.005524,103.634949 
	C143.060715,102.212990 141.135071,100.420685 139.112122,98.311951 
	C141.018112,99.751884 143.021393,101.508240 145.005524,103.634949 
z"/>
<path fill="#FEDFDC" opacity="1.000000" stroke="none" 
	d="
M74.964973,34.010197 
	C76.980614,35.764614 78.996262,37.519035 80.752609,39.635094 
	C80.325539,39.999821 80.157768,40.002911 79.990005,40.006001 
	C79.990005,40.006001 79.999496,40.000458 79.894547,39.727890 
	C79.186180,38.979660 78.582764,38.503994 77.979347,38.028332 
	C77.979347,38.028332 78.000000,37.999626 77.895500,37.744995 
	C77.336578,37.192253 76.882149,36.894142 76.427719,36.596031 
	C76.427719,36.596035 76.008644,36.862656 76.137375,36.446465 
	C75.836548,35.694164 75.406975,35.358055 74.977402,35.021946 
	C74.977402,35.021946 74.999695,35.000000 74.976471,34.757973 
	C74.957161,34.347366 74.961067,34.178783 74.964973,34.010197 
z"/>
<path fill="#FEDFDC" opacity="1.000000" stroke="none" 
	d="
M37.769287,19.105749 
	C36.959808,21.279392 35.771133,23.415596 34.349148,25.792019 
	C33.308243,22.818064 33.534214,20.089848 37.769287,19.105749 
z"/>
<path fill="#FEDAD7" opacity="1.000000" stroke="none" 
	d="
M178.829437,139.003845 
	C177.240295,137.484772 175.734406,135.553497 174.143768,133.301147 
	C178.388321,132.505432 178.545212,135.639603 178.829437,139.003845 
z"/>
<path fill="#FDE4E1" opacity="1.000000" stroke="none" 
	d="
M151.390991,62.010513 
	C152.132477,60.739368 153.269760,59.481544 154.714722,58.130024 
	C157.234756,62.035881 154.548981,62.060871 151.390991,62.010513 
z"/>
<path fill="#FCECEA" opacity="1.000000" stroke="none" 
	d="
M109.053879,107.950775 
	C109.053879,107.950775 109.140572,108.366768 109.119659,108.578186 
	C107.987648,109.190933 106.876549,109.592262 105.382721,109.996796 
	C105.000000,110.000000 105.002014,110.001152 104.904800,109.798103 
	C104.623711,109.347511 104.389236,109.164902 104.098663,108.796341 
	C104.095314,108.378189 104.097496,108.210907 104.099670,108.043633 
	C104.099670,108.043633 104.025917,108.020325 104.314774,107.993286 
	C105.094193,107.394753 105.584747,106.823265 106.075302,106.251770 
	C106.367348,106.222267 106.653519,106.251129 107.283058,106.600479 
	C108.106163,107.225334 108.580025,107.588051 109.053879,107.950775 
z"/>
<path fill="#FDE4E1" opacity="1.000000" stroke="none" 
	d="
M173.571396,17.081200 
	C172.028610,16.545893 170.648743,15.663094 169.097839,14.517141 
	C171.926590,12.371611 173.049576,14.127825 173.571396,17.081200 
z"/>
<path fill="#FDEBE8" opacity="1.000000" stroke="none" 
	d="
M35.906487,136.118256 
	C35.709587,137.605743 35.134499,139.081543 34.319717,140.792740 
	C32.131161,138.672058 32.744732,137.070038 35.906487,136.118256 
z"/>
<path fill="#FDF1F0" opacity="1.000000" stroke="none" 
	d="
M64.068314,64.162750 
	C65.499451,65.093689 66.897980,66.417145 68.401947,68.020348 
	C65.082542,69.361542 64.357376,67.199318 64.068314,64.162750 
z"/>
<path fill="#FEDAD7" opacity="1.000000" stroke="none" 
	d="
M166.023438,124.573410 
	C164.739594,123.849182 163.473328,122.732857 162.114380,121.309631 
	C164.365601,120.792557 166.245850,121.168671 166.023438,124.573410 
z"/>
<path fill="#FCECEA" opacity="1.000000" stroke="none" 
	d="
M104.998962,109.999237 
	C105.625290,111.667801 107.222725,113.651764 103.349632,113.984802 
	C102.991913,113.992210 102.980865,113.981781 102.986160,113.590149 
	C103.021667,112.426285 103.051880,111.654053 103.333511,110.802315 
	C104.057289,110.482262 104.529648,110.241707 105.002014,110.001152 
	C105.002014,110.001152 105.000000,110.000000 104.998962,109.999237 
z"/>
<path fill="#FDF1F0" opacity="1.000000" stroke="none" 
	d="
M68.488922,68.872879 
	C69.790764,69.414070 70.885330,70.353828 72.105118,71.596252 
	C70.404320,71.789238 67.786621,72.869324 68.488922,68.872879 
z"/>
<path fill="#FDE4E1" opacity="1.000000" stroke="none" 
	d="
M158.027222,54.025711 
	C158.835983,53.429050 159.633163,52.815136 160.722534,52.110489 
	C162.423233,54.787529 161.334351,55.655502 158.303024,54.878883 
	C158.043488,54.514530 158.053329,54.018856 158.053329,54.018856 
	C158.053329,54.018856 158.015625,54.008461 158.027222,54.025711 
z"/>
<path fill="#FEDAD7" opacity="1.000000" stroke="none" 
	d="
M161.010437,119.622971 
	C159.724533,118.873940 158.456085,117.750618 157.102661,116.317238 
	C158.354431,117.087685 159.691162,118.168175 161.010437,119.622971 
z"/>
<path fill="#D03D46" opacity="1.000000" stroke="none" 
	d="
M66.990128,26.009693 
	C67.738701,26.990311 68.497124,27.965433 69.349007,29.231228 
	C67.977104,28.228287 66.511734,26.934673 65.045761,25.282513 
	C65.045151,24.923965 65.511017,24.937967 65.810394,25.226990 
	C66.402306,25.684626 66.694832,25.853235 66.987358,26.021845 
	C66.987358,26.021845 66.999969,26.004196 66.990128,26.009693 
z"/>
<path fill="#D03D46" opacity="1.000000" stroke="none" 
	d="
M69.409218,29.967041 
	C70.176270,30.030300 70.800102,30.459425 71.704529,30.963394 
	C72.299736,31.495811 72.614357,31.953386 73.000214,32.682743 
	C71.802956,32.080650 70.534485,31.206779 69.409218,29.967041 
z"/>
<path fill="#FDF1F0" opacity="1.000000" stroke="none" 
	d="
M73.718399,98.026062 
	C73.629982,98.639374 73.158165,99.234123 72.061493,99.926384 
	C70.958565,100.016235 70.480507,100.008583 70.002441,100.000916 
	C71.113289,99.336441 72.224144,98.671967 73.718399,98.026062 
z"/>
<path fill="#FEDAD7" opacity="1.000000" stroke="none" 
	d="
M161.412308,159.008698 
	C161.003525,158.995972 161.006317,158.527100 161.017883,158.293045 
	C163.064697,158.032578 165.099945,158.006165 167.570526,158.025055 
	C168.005829,158.070343 168.035645,158.541595 167.671616,158.778503 
	C166.841019,159.064484 166.374435,159.113556 165.907867,159.162643 
	C164.545609,159.115570 163.183350,159.068497 161.412308,159.008698 
z"/>
<path fill="#FDEBE8" opacity="1.000000" stroke="none" 
	d="
M69.699890,100.042740 
	C70.480507,100.008583 70.958565,100.016235 71.794891,100.043274 
	C71.658653,100.658142 71.164162,101.253632 70.388031,101.940918 
	C69.569321,101.808792 69.032242,101.584862 68.495171,101.360931 
	C68.795898,100.935471 69.096619,100.510017 69.699890,100.042740 
z"/>
<path fill="#C73C46" opacity="1.000000" stroke="none" 
	d="
M36.887550,149.798279 
	C36.409634,149.820343 36.004810,149.448944 35.352402,148.938156 
	C35.104813,148.798767 35.075218,148.376114 34.987198,147.862396 
	C34.889790,146.898499 34.880398,146.448318 34.871010,145.998123 
	C35.567554,147.133682 36.264099,148.269257 36.887550,149.798279 
z"/>
<path fill="#FDF1F0" opacity="1.000000" stroke="none" 
	d="
M55.558495,55.844448 
	C56.621113,56.236115 57.467258,56.992111 58.414143,58.011818 
	C57.457260,57.586609 56.399639,56.897694 55.558495,55.844448 
z"/>
<path fill="#FEDAD7" opacity="1.000000" stroke="none" 
	d="
M135.999695,94.621597 
	C135.039749,94.209648 134.090622,93.426071 133.054443,92.340714 
	C133.981766,92.775940 134.996124,93.512955 135.999695,94.621597 
z"/>
<path fill="#FEDFDC" opacity="1.000000" stroke="none" 
	d="
M86.975739,45.675232 
	C86.023972,45.240387 85.087944,44.428719 84.062119,43.314487 
	C84.978706,43.774090 85.985100,44.536247 86.975739,45.675232 
z"/>
<path fill="#FDEBE8" opacity="1.000000" stroke="none" 
	d="
M64.893768,106.906876 
	C65.642639,105.892296 66.469299,104.948288 67.657738,104.263672 
	C68.024170,104.693756 68.028831,104.864464 68.033501,105.035179 
	C68.033501,105.035179 67.999893,105.002502 67.735992,105.123367 
	C66.689125,105.870415 65.906166,106.496597 65.123215,107.122787 
	C65.123215,107.122787 64.971558,106.977440 64.893768,106.906876 
z"/>
<path fill="#FEDAD7" opacity="1.000000" stroke="none" 
	d="
M157.003601,115.613518 
	C156.056442,115.189140 155.120102,114.395943 154.094635,113.302322 
	C155.008453,113.749496 156.011429,114.497101 157.003601,115.613518 
z"/>
<path fill="#FEDAD7" opacity="1.000000" stroke="none" 
	d="
M174.023087,132.578400 
	C173.081131,132.152100 172.142685,131.363602 171.135223,130.268753 
	C172.053024,130.713669 173.039795,131.464935 174.023087,132.578400 
z"/>
<path fill="#FCECEA" opacity="1.000000" stroke="none" 
	d="
M112.901901,113.114006 
	C112.112999,112.545013 111.388573,111.906090 111.189011,111.168732 
	C112.163445,111.355186 112.613007,111.640083 113.062569,111.924980 
	C113.062569,111.924980 112.996597,111.988815 113.018837,112.208527 
	C113.041077,112.428246 113.101448,112.910126 113.101448,112.910126 
	C113.101448,112.910126 112.966370,113.044075 112.901901,113.114006 
z"/>
<path fill="#D03D46" opacity="1.000000" stroke="none" 
	d="
M62.405556,22.955751 
	C63.168858,23.014511 63.799080,23.434885 64.710709,23.937122 
	C64.992111,24.018982 65.077477,24.483078 65.076317,24.719051 
	C64.140930,24.409138 63.206703,23.863253 62.405556,22.955751 
z"/>
<path fill="#FEDFDC" opacity="1.000000" stroke="none" 
	d="
M94.918411,52.668663 
	C94.765953,53.025131 94.563499,53.033348 94.058281,53.070618 
	C93.202103,52.591488 92.648689,52.083302 92.019394,51.300526 
	C92.918480,51.457424 93.893448,51.888916 94.918411,52.668663 
z"/>
<path fill="#FDF1F0" opacity="1.000000" stroke="none" 
	d="
M58.530327,58.825394 
	C59.473961,59.083618 60.224979,59.708420 61.089314,60.621803 
	C60.247662,60.337578 59.292686,59.764774 58.530327,58.825394 
z"/>
<path fill="#C73C46" opacity="1.000000" stroke="none" 
	d="
M113.029633,111.569366 
	C112.613007,111.640083 112.163445,111.355186 111.452766,111.007492 
	C110.991188,110.578880 110.790726,110.213074 110.498764,109.546768 
	C111.270409,109.902092 112.133553,110.557922 113.029633,111.569366 
z"/>
<path fill="#FCECEA" opacity="1.000000" stroke="none" 
	d="
M165.986465,159.439758 
	C166.374435,159.113556 166.841019,159.064484 167.659286,159.014282 
	C167.705948,159.529388 167.400894,160.045639 167.095840,160.561890 
	C166.752243,160.280228 166.408661,159.998550 165.986465,159.439758 
z"/>
<path fill="#FEDFDC" opacity="1.000000" stroke="none" 
	d="
M35.024929,34.072502 
	C35.636909,34.352695 35.965302,34.793121 36.360889,35.506462 
	C35.865833,35.263828 35.303589,34.748280 35.024929,34.072502 
z"/>
<path fill="#FDEBE8" opacity="1.000000" stroke="none" 
	d="
M34.698700,145.947632 
	C34.880398,146.448318 34.889790,146.898499 34.870033,147.685913 
	C34.447983,147.418793 34.055084,146.814453 33.915188,146.066315 
	C34.168194,145.922546 34.526394,145.897141 34.698700,145.947632 
z"/>
<path fill="#C94A4F" opacity="1.000000" stroke="none" 
	d="
M76.028610,96.280441 
	C76.414124,95.924301 76.727386,95.810135 77.286194,95.633949 
	C77.084831,96.250168 76.637939,96.928398 75.853119,97.512115 
	C75.662254,97.119194 75.809303,96.820808 76.028610,96.280441 
z"/>
<path fill="#D03D46" opacity="1.000000" stroke="none" 
	d="
M74.705032,33.900528 
	C74.961067,34.178783 74.957161,34.347366 74.964516,34.768673 
	C74.337036,34.544033 73.698303,34.066666 73.051147,33.258690 
	C73.510178,33.215675 73.977638,33.503269 74.705032,33.900528 
z"/>
<path fill="#FDEBE8" opacity="1.000000" stroke="none" 
	d="
M41.121307,156.000824 
	C41.578007,155.928879 42.156193,156.171478 42.893147,156.685989 
	C42.448875,156.743729 41.845833,156.529556 41.121307,156.000824 
z"/>
<path fill="#D02D38" opacity="1.000000" stroke="none" 
	d="
M155.869980,56.458469 
	C155.868637,56.047104 156.132523,55.554386 156.736786,55.056602 
	C156.763168,55.493401 156.449203,55.935257 155.869980,56.458469 
z"/>
<path fill="#C94A4F" opacity="1.000000" stroke="none" 
	d="
M68.356003,105.009567 
	C68.028831,104.864464 68.024170,104.693756 68.024918,104.266937 
	C68.359337,103.880417 68.688370,103.750008 69.279984,103.579926 
	C69.254547,104.021484 68.966530,104.502716 68.356003,105.009567 
z"/>
<path fill="#FEDAD7" opacity="1.000000" stroke="none" 
	d="
M132.893494,91.788651 
	C132.660141,91.880310 132.355316,91.724091 132.004944,91.303040 
	C132.246918,91.205734 132.534485,91.373260 132.893494,91.788651 
z"/>
<path fill="#FEDFDC" opacity="1.000000" stroke="none" 
	d="
M87.909668,46.762886 
	C87.699310,46.847557 87.401665,46.688324 87.022987,46.282188 
	C87.235435,46.196514 87.528900,46.357750 87.909668,46.762886 
z"/>
<path fill="#FEDAD7" opacity="1.000000" stroke="none" 
	d="
M137.919739,96.743401 
	C137.691452,96.840858 137.381516,96.695564 137.020996,96.285507 
	C137.259628,96.180717 137.548859,96.340683 137.919739,96.743401 
z"/>
<path fill="#FEDFDC" opacity="1.000000" stroke="none" 
	d="
M38.916660,18.154623 
	C39.002918,18.387863 38.816040,18.684761 38.374908,19.071056 
	C38.294949,18.846397 38.469238,18.532339 38.916660,18.154623 
z"/>
<path fill="#FDEBE8" opacity="1.000000" stroke="none" 
	d="
M40.210190,155.704269 
	C40.147892,155.923691 40.018951,156.147064 39.890015,156.370453 
	C39.881042,156.201096 39.872074,156.031738 40.003731,155.718536 
	C40.144360,155.574707 40.143547,155.708237 40.210190,155.704269 
z"/>
<path fill="#D03D46" opacity="1.000000" stroke="none" 
	d="
M80.084023,40.246834 
	C80.157768,40.002911 80.325539,39.999821 80.744904,40.004135 
	C80.996498,40.011539 81.074532,40.493134 81.064461,40.736969 
	C80.762268,40.816425 80.470154,40.652046 80.084023,40.246834 
z"/>
<path fill="#FEDFDC" opacity="1.000000" stroke="none" 
	d="
M66.904060,25.779110 
	C66.694832,25.853235 66.402306,25.684626 66.040627,25.263067 
	C66.254570,25.185539 66.537666,25.360956 66.904060,25.779110 
z"/>
<path fill="#FEDFDC" opacity="1.000000" stroke="none" 
	d="
M34.089458,31.014370 
	C34.454357,30.920887 34.637466,31.168961 34.616631,31.761847 
	C34.266346,31.831936 34.098007,31.581690 34.089458,31.014370 
z"/>
<path fill="#FEDAD7" opacity="1.000000" stroke="none" 
	d="
M170.958496,129.690353 
	C170.732574,129.786026 170.434174,129.642654 170.087662,129.242218 
	C170.403015,128.992920 170.685150,129.148300 170.958496,129.690353 
z"/>
<path fill="#FEDAD7" opacity="1.000000" stroke="none" 
	d="
M169.935486,128.720276 
	C169.709854,128.815689 169.406998,128.671570 169.054794,128.268677 
	C169.289734,128.166855 169.573990,128.323822 169.935486,128.720276 
z"/>
<path fill="#FEDAD7" opacity="1.000000" stroke="none" 
	d="
M168.924408,127.751770 
	C168.693268,127.836670 168.396866,127.679184 168.065918,127.259995 
	C168.307297,127.168663 168.583221,127.339020 168.924408,127.751770 
z"/>
<path fill="#FEDAD7" opacity="1.000000" stroke="none" 
	d="
M138.934235,97.738724 
	C138.708801,97.826454 138.414261,97.668381 138.066986,97.253830 
	C138.297882,97.162544 138.581512,97.327736 138.934235,97.738724 
z"/>
<path fill="#FEDAD7" opacity="1.000000" stroke="none" 
	d="
M166.932739,125.731506 
	C166.702545,125.821854 166.402161,125.672859 166.067245,125.260941 
	C166.393951,125.020653 166.670547,125.185356 166.932739,125.731506 
z"/>
<path fill="#FEDAD7" opacity="1.000000" stroke="none" 
	d="
M145.911469,104.759415 
	C145.685059,104.846191 145.387955,104.688843 145.042389,104.272385 
	C145.276199,104.180611 145.558487,104.347946 145.911469,104.759415 
z"/>
<path fill="#D02D38" opacity="1.000000" stroke="none" 
	d="
M157.804657,54.109032 
	C158.053329,54.018856 158.043488,54.514530 158.032166,54.762169 
	C158.020844,55.009811 157.531219,55.089073 157.283051,55.088085 
	C157.208572,54.791134 157.382278,54.495171 157.804657,54.109032 
z"/>
<path fill="#C73C46" opacity="1.000000" stroke="none" 
	d="
M132.764435,130.951599 
	C132.040955,130.883347 131.394852,130.454208 130.472763,129.915878 
	C126.758942,126.174477 123.321121,122.542259 119.802940,118.585564 
	C121.677872,119.555939 123.889305,120.590515 125.530014,122.205048 
	C128.165680,124.798637 130.424026,127.775673 132.764435,130.951599 
z"/>
<path fill="#D02D38" opacity="1.000000" stroke="none" 
	d="
M176.811127,34.116791 
	C175.006805,36.708435 172.843155,39.278622 170.358643,41.951149 
	C172.175781,39.400768 174.313797,36.748055 176.811127,34.116791 
z"/>
<path fill="#C94A4F" opacity="1.000000" stroke="none" 
	d="
M78.953972,94.600906 
	C80.695801,92.324348 82.796013,90.091827 85.192703,87.741013 
	C83.430237,89.963463 81.371292,92.304192 78.953972,94.600906 
z"/>
<path fill="#C8434B" opacity="1.000000" stroke="none" 
	d="
M41.394703,132.043427 
	C41.973801,130.923538 42.914295,129.810272 43.986862,128.409729 
	C45.397079,127.029770 46.675228,125.937111 48.244469,124.739731 
	C46.275742,127.106697 44.015923,129.578384 41.394703,132.043427 
z"/>
<path fill="#C73C46" opacity="1.000000" stroke="none" 
	d="
M135.490814,134.936249 
	C134.750336,134.161713 134.302917,133.521988 133.770142,132.602081 
	C135.738113,134.074417 137.791428,135.826935 139.761520,137.941193 
	C138.380142,137.225662 137.082001,136.148346 135.490814,134.936249 
z"/>
<path fill="#D02D38" opacity="1.000000" stroke="none" 
	d="
M151.254349,22.933542 
	C152.677414,20.963520 154.479630,19.033373 156.600891,17.011719 
	C157.006546,20.552517 155.068771,22.416878 151.254349,22.933542 
z"/>
<path fill="#C94A4F" opacity="1.000000" stroke="none" 
	d="
M64.989853,107.409637 
	C65.906166,106.496597 66.689125,105.870415 67.755020,105.136017 
	C66.279137,107.018372 64.520317,109.008949 62.405159,111.024826 
	C62.984707,109.932243 63.920597,108.814369 64.989853,107.409637 
z"/>
<path fill="#D02D38" opacity="1.000000" stroke="none" 
	d="
M129.256500,44.908958 
	C129.993896,43.592495 131.120331,42.325394 132.549759,40.951828 
	C131.783676,42.216347 130.714615,43.587337 129.256500,44.908958 
z"/>
<path fill="#C94A4F" opacity="1.000000" stroke="none" 
	d="
M48.943378,123.994789 
	C49.423801,123.385986 49.904221,122.777191 50.544098,121.922409 
	C51.146317,121.359886 51.589077,121.043343 52.299034,120.677361 
	C51.956715,121.722641 51.347195,122.817368 50.110767,123.957260 
	C49.303699,123.999886 49.123539,123.997337 48.943378,123.994789 
z"/>
<path fill="#C94A4F" opacity="1.000000" stroke="none" 
	d="
M53.936119,119.566536 
	C54.871490,118.107338 56.152924,116.690002 57.741402,115.160568 
	C56.793022,116.568451 55.537598,118.088432 53.936119,119.566536 
z"/>
<path fill="#C73C46" opacity="1.000000" stroke="none" 
	d="
M113.397720,113.018051 
	C113.101448,112.910126 113.041077,112.428246 113.058594,112.185959 
	C114.322212,112.827530 115.568314,113.711395 116.732330,114.965790 
	C115.664825,114.599541 114.679405,113.862762 113.397720,113.018051 
z"/>
<path fill="#D02D38" opacity="1.000000" stroke="none" 
	d="
M145.089508,28.945936 
	C145.549454,27.964630 146.411453,27.011038 147.579514,25.958948 
	C147.087570,26.898182 146.289566,27.935917 145.089508,28.945936 
z"/>
<path fill="#C73C46" opacity="1.000000" stroke="none" 
	d="
M64.638062,146.989563 
	C64.227928,147.955826 63.440948,148.917480 62.354122,149.980042 
	C62.789921,149.048950 63.525558,148.016953 64.638062,146.989563 
z"/>
<path fill="#C73C46" opacity="1.000000" stroke="none" 
	d="
M78.719620,132.982040 
	C78.280800,133.947952 77.458603,134.901337 76.335205,135.957733 
	C76.801414,135.030319 77.568825,133.999924 78.719620,132.982040 
z"/>
<path fill="#D02D38" opacity="1.000000" stroke="none" 
	d="
M120.293732,53.944290 
	C120.693977,52.961159 121.478355,52.009773 122.559845,50.956322 
	C122.130585,51.894852 121.404228,52.935444 120.293732,53.944290 
z"/>
<path fill="#C73C46" opacity="1.000000" stroke="none" 
	d="
M74.696396,137.025574 
	C74.238655,137.963196 73.430840,138.907135 72.323044,139.951889 
	C72.797493,139.045761 73.571907,138.038834 74.696396,137.025574 
z"/>
<path fill="#C73C46" opacity="1.000000" stroke="none" 
	d="
M83.718460,128.044205 
	C83.255150,128.971252 82.439377,129.904037 81.329697,130.950745 
	C81.812515,130.059753 82.589256,129.054855 83.718460,128.044205 
z"/>
<path fill="#D02D38" opacity="1.000000" stroke="none" 
	d="
M102.978035,63.419216 
	C103.873215,63.868572 104.803947,64.656670 105.866531,65.721992 
	C105.003441,65.252129 104.008514,64.505043 102.978035,63.419216 
z"/>
<path fill="#C73C46" opacity="1.000000" stroke="none" 
	d="
M105.947029,106.035034 
	C105.584747,106.823265 105.094193,107.394753 104.321136,108.031433 
	C104.632019,107.337181 105.225388,106.577744 105.947029,106.035034 
z"/>
<path fill="#C73C46" opacity="1.000000" stroke="none" 
	d="
M119.790466,117.908493 
	C119.109016,117.832474 118.476318,117.387810 117.745934,116.662766 
	C118.378563,116.768211 119.108887,117.154030 119.790466,117.908493 
z"/>
<path fill="#C94A4F" opacity="1.000000" stroke="none" 
	d="
M58.386398,115.027832 
	C58.701965,114.301735 59.354259,113.555801 60.294746,112.716553 
	C59.962997,113.418152 59.343060,114.213066 58.386398,115.027832 
z"/>
<path fill="#C73C46" opacity="1.000000" stroke="none" 
	d="
M148.801849,146.899460 
	C148.132629,146.789948 147.506027,146.317947 146.799500,145.554871 
	C147.427872,145.688187 148.136169,146.112579 148.801849,146.899460 
z"/>
<path fill="#C73C46" opacity="1.000000" stroke="none" 
	d="
M98.777176,112.795059 
	C99.253067,112.191368 99.728958,111.587677 100.575653,110.968994 
	C100.946449,110.953995 101.110764,111.115906 100.995117,111.384117 
	C100.286179,112.134735 99.692894,112.617134 99.019272,113.023132 
	C98.938919,112.946724 98.777168,112.795059 98.777176,112.795059 
z"/>
<path fill="#C73C46" opacity="1.000000" stroke="none" 
	d="
M58.715454,153.034668 
	C58.565136,153.634521 58.079098,154.246872 57.307503,154.952286 
	C57.474541,154.379288 57.927139,153.713242 58.715454,153.034668 
z"/>
<path fill="#D03D46" opacity="1.000000" stroke="none" 
	d="
M78.006378,38.352859 
	C78.582764,38.503994 79.186180,38.979660 79.893028,39.733032 
	C79.342110,39.566284 78.687752,39.121838 78.006378,38.352859 
z"/>
<path fill="#C73C46" opacity="1.000000" stroke="none" 
	d="
M60.709476,151.033386 
	C60.561340,151.636002 60.078697,152.256409 59.308525,152.963348 
	C59.472324,152.383636 59.923645,151.717407 60.709476,151.033386 
z"/>
<path fill="#C73C46" opacity="1.000000" stroke="none" 
	d="
M100.862236,110.875175 
	C101.267487,110.192612 101.756943,109.588867 102.634384,108.999107 
	C103.022354,109.013092 103.213142,109.208702 103.180267,109.434502 
	C103.147392,109.660301 103.037331,110.103203 102.765022,110.161224 
	C102.032066,110.518135 101.571419,110.817024 101.110764,111.115906 
	C101.110764,111.115906 100.946449,110.953995 100.862236,110.875175 
z"/>
<path fill="#D02D38" opacity="1.000000" stroke="none" 
	d="
M137.089828,36.921700 
	C137.256714,36.300690 137.781021,35.676285 138.603577,34.969467 
	C138.416962,35.564140 137.932098,36.241226 137.089828,36.921700 
z"/>
<path fill="#C73C46" opacity="1.000000" stroke="none" 
	d="
M66.755783,145.000305 
	C66.591782,145.599930 66.085419,146.214462 65.287178,146.922974 
	C65.468010,146.349701 65.940720,145.682465 66.755783,145.000305 
z"/>
<path fill="#C73C46" opacity="1.000000" stroke="none" 
	d="
M90.726074,121.043205 
	C90.580009,121.650681 90.095566,122.266296 89.320282,122.971008 
	C89.482193,122.390503 89.934944,121.720924 90.726074,121.043205 
z"/>
<path fill="#C73C46" opacity="1.000000" stroke="none" 
	d="
M146.778656,144.904724 
	C146.118835,144.788895 145.506607,144.314896 144.812881,143.555847 
	C145.429657,143.696030 146.127960,144.121292 146.778656,144.904724 
z"/>
<path fill="#C73C46" opacity="1.000000" stroke="none" 
	d="
M88.725449,123.036285 
	C88.565674,123.639046 88.071564,124.249283 87.284050,124.935745 
	C87.457474,124.355904 87.924294,123.699837 88.725449,123.036285 
z"/>
<path fill="#C73C46" opacity="1.000000" stroke="none" 
	d="
M86.679352,125.016129 
	C86.547836,125.625923 86.083138,126.260880 85.329872,126.985245 
	C85.476257,126.396866 85.911209,125.719078 86.679352,125.016129 
z"/>
<path fill="#C73C46" opacity="1.000000" stroke="none" 
	d="
M69.688385,142.017624 
	C69.546387,142.629181 69.067238,143.269913 68.294899,144.007065 
	C68.451553,143.417923 68.901398,142.732361 69.688385,142.017624 
z"/>
<path fill="#D03D46" opacity="1.000000" stroke="none" 
	d="
M59.008293,19.281303 
	C59.592052,19.443228 60.197731,19.939114 60.903065,20.717150 
	C60.345219,20.537954 59.687721,20.076609 59.008293,19.281303 
z"/>
<path fill="#D03D46" opacity="1.000000" stroke="none" 
	d="
M61.014534,21.320930 
	C61.426979,21.331602 61.853348,21.665798 62.356342,22.267931 
	C61.964798,22.238729 61.496624,21.941593 61.014534,21.320930 
z"/>
<path fill="#D03D46" opacity="1.000000" stroke="none" 
	d="
M76.400856,36.914276 
	C76.882149,36.894142 77.336578,37.192253 77.881592,37.756065 
	C77.439453,37.758686 76.906723,37.495602 76.400856,36.914276 
z"/>
<path fill="#C73C46" opacity="1.000000" stroke="none" 
	d="
M109.009521,107.606705 
	C108.580025,107.588051 108.106163,107.225334 107.499557,106.584190 
	C107.899597,106.624725 108.432381,106.943680 109.009521,107.606705 
z"/>
<path fill="#D03D46" opacity="1.000000" stroke="none" 
	d="
M74.996979,35.341721 
	C75.406975,35.358055 75.836548,35.694164 76.338821,36.301048 
	C75.946533,36.268379 75.481544,35.964935 74.996979,35.341721 
z"/>
<path fill="#D02D38" opacity="1.000000" stroke="none" 
	d="
M136.745972,75.007240 
	C136.600494,75.339691 136.133453,75.679436 135.360123,76.085411 
	C135.510696,75.772606 135.967560,75.393570 136.745972,75.007240 
z"/>
<path fill="#C94A4F" opacity="1.000000" stroke="none" 
	d="
M60.921570,112.600616 
	C60.905991,112.128357 61.203564,111.663498 61.775841,111.123711 
	C61.778603,111.568527 61.506660,112.088272 60.921570,112.600616 
z"/>
<path fill="#D02D38" opacity="1.000000" stroke="none" 
	d="
M128.124359,45.844498 
	C128.027435,45.600483 128.192719,45.284168 128.631042,44.913338 
	C128.731583,45.163277 128.559067,45.467735 128.124359,45.844498 
z"/>
<path fill="#C73C46" opacity="1.000000" stroke="none" 
	d="
M75.809265,136.095154 
	C75.892052,136.326614 75.718262,136.630264 75.277969,136.991028 
	C75.191887,136.754532 75.372292,136.460938 75.809265,136.095154 
z"/>
<path fill="#C94A4F" opacity="1.000000" stroke="none" 
	d="
M85.880791,87.580505 
	C85.608978,87.490730 85.662750,87.158073 85.813278,87.082672 
	C86.144005,87.004326 86.324196,87.001381 86.775024,87.004410 
	C86.747978,87.230339 86.450294,87.450310 85.880791,87.580505 
z"/>
<path fill="#C73C46" opacity="1.000000" stroke="none" 
	d="
M140.810089,139.133453 
	C140.530106,139.243011 140.192734,139.037811 139.769073,138.542923 
	C140.039413,138.441727 140.396057,138.630219 140.810089,139.133453 
z"/>
<path fill="#C73C46" opacity="1.000000" stroke="none" 
	d="
M71.797226,140.099609 
	C71.885551,140.327545 71.716156,140.641724 71.277878,141.027649 
	C71.185829,140.794891 71.362671,140.490387 71.797226,140.099609 
z"/>
<path fill="#C73C46" opacity="1.000000" stroke="none" 
	d="
M142.733185,140.968109 
	C142.458023,141.085236 142.119400,140.890961 141.675385,140.411285 
	C141.936554,140.302826 142.303131,140.479752 142.733185,140.968109 
z"/>
<path fill="#C94A4F" opacity="1.000000" stroke="none" 
	d="
M77.902969,95.539925 
	C77.650284,95.168221 77.804901,94.918533 78.303055,94.684402 
	C78.408875,94.942856 78.296761,95.263512 77.902969,95.539925 
z"/>
<path fill="#C73C46" opacity="1.000000" stroke="none" 
	d="
M143.758606,141.977936 
	C143.485458,142.096878 143.176956,141.925552 142.795425,141.490326 
	C143.056015,141.380157 143.389633,141.533936 143.758606,141.977936 
z"/>
<path fill="#D02D38" opacity="1.000000" stroke="none" 
	d="
M117.968216,55.866692 
	C117.904747,55.611656 118.130646,55.299034 118.649490,54.942093 
	C118.714157,55.201557 118.485870,55.505333 117.968216,55.866692 
z"/>
<path fill="#C73C46" opacity="1.000000" stroke="none" 
	d="
M144.741089,142.989655 
	C144.463593,143.099899 144.162979,142.918259 143.796173,142.471466 
	C144.059311,142.370117 144.388657,142.533936 144.741089,142.989655 
z"/>
<path fill="#D02D38" opacity="1.000000" stroke="none" 
	d="
M139.141510,34.855545 
	C139.048889,34.620377 139.212936,34.309490 139.646606,33.941120 
	C139.743561,34.182362 139.570877,34.481094 139.141510,34.855545 
z"/>
<path fill="#D02D38" opacity="1.000000" stroke="none" 
	d="
M115.978615,57.826622 
	C115.893684,57.576256 116.117035,57.237350 116.630798,56.783684 
	C116.709763,57.025311 116.498337,57.381699 115.978615,57.826622 
z"/>
<path fill="#D02D38" opacity="1.000000" stroke="none" 
	d="
M107.930069,65.806366 
	C107.870766,65.548256 108.108406,65.251091 108.631500,64.898865 
	C108.686966,65.151634 108.456978,65.459473 107.930069,65.806366 
z"/>
<path fill="#D02D38" opacity="1.000000" stroke="none" 
	d="
M109.104858,64.832748 
	C109.011986,64.588989 109.187134,64.279282 109.635193,63.907986 
	C109.729706,64.153198 109.551285,64.459991 109.104858,64.832748 
z"/>
<path fill="#D02D38" opacity="1.000000" stroke="none" 
	d="
M110.113785,63.837902 
	C110.022987,63.602833 110.197876,63.297028 110.638458,62.918022 
	C110.729271,63.152271 110.554367,63.459721 110.113785,63.837902 
z"/>
<path fill="#C73C46" opacity="1.000000" stroke="none" 
	d="
M149.750748,147.983856 
	C149.479050,148.094986 149.172302,147.917343 148.797729,147.472809 
	C149.058502,147.368973 149.387085,147.532043 149.750748,147.983856 
z"/>
<path fill="#C73C46" opacity="1.000000" stroke="none" 
	d="
M150.813705,149.110931 
	C150.544571,149.202499 150.224365,148.982758 149.815552,148.480011 
	C150.072174,148.397888 150.417404,148.598755 150.813705,149.110931 
z"/>
<path fill="#C73C46" opacity="1.000000" stroke="none" 
	d="
M61.830830,150.108673 
	C61.906715,150.337662 61.726509,150.637894 61.276978,150.991302 
	C61.196682,150.756271 61.385712,150.468094 61.830830,150.108673 
z"/>
<path fill="#D02D38" opacity="1.000000" stroke="none" 
	d="
M111.106842,62.831963 
	C111.002647,62.582973 111.165985,62.260349 111.603607,61.876762 
	C111.710052,62.129971 111.542213,62.444145 111.106842,62.831963 
z"/>
<path fill="#D02D38" opacity="1.000000" stroke="none" 
	d="
M112.094040,61.819252 
	C112.004112,61.574539 112.184052,61.269863 112.632233,60.902107 
	C112.721619,61.145779 112.542770,61.452534 112.094040,61.819252 
z"/>
<path fill="#C73C46" opacity="1.000000" stroke="none" 
	d="
M56.796280,155.075226 
	C56.851841,155.314880 56.657173,155.615158 56.176628,155.912613 
	C56.109180,155.651810 56.327618,155.393845 56.796280,155.075226 
z"/>
<path fill="#D02D38" opacity="1.000000" stroke="none" 
	d="
M113.106041,60.831924 
	C113.013023,60.588638 113.186859,60.277363 113.632050,59.905140 
	C113.726578,60.150772 113.549736,60.457352 113.106041,60.831924 
z"/>
<path fill="#D02D38" opacity="1.000000" stroke="none" 
	d="
M134.120956,39.844036 
	C134.032867,39.613880 134.207443,39.307487 134.645370,38.925316 
	C134.733688,39.155628 134.558655,39.461712 134.120956,39.844036 
z"/>
<path fill="#D02D38" opacity="1.000000" stroke="none" 
	d="
M114.129715,59.818825 
	C114.026306,59.581215 114.203583,59.247772 114.654114,58.804497 
	C114.755035,59.037434 114.582718,59.380215 114.129715,59.818825 
z"/>
<path fill="#D02D38" opacity="1.000000" stroke="none" 
	d="
M133.103394,40.830841 
	C133.017242,40.591061 133.197250,40.283821 133.649017,39.916092 
	C133.737030,40.158199 133.553299,40.460789 133.103394,40.830841 
z"/>
<path fill="#C73C46" opacity="1.000000" stroke="none" 
	d="
M95.887634,116.105591 
	C95.965378,116.342751 95.771423,116.646805 95.305222,117.018356 
	C95.227303,116.781403 95.421623,116.476936 95.887634,116.105591 
z"/>
<path fill="#C73C46" opacity="1.000000" stroke="none" 
	d="
M91.806328,120.096962 
	C91.894020,120.326973 91.724503,120.632439 91.290436,121.003235 
	C91.200294,120.769859 91.374710,120.471130 91.806328,120.096962 
z"/>
<path fill="#C94A4F" opacity="1.000000" stroke="none" 
	d="
M52.930099,120.603439 
	C52.646008,120.249817 52.785019,119.983780 53.279800,119.712036 
	C53.403702,119.962578 53.309582,120.290802 52.930099,120.603439 
z"/>
<path fill="#C73C46" opacity="1.000000" stroke="none" 
	d="
M92.835861,119.077194 
	C92.920418,119.310356 92.742523,119.622742 92.292770,119.999168 
	C92.205070,119.760941 92.389236,119.458687 92.835861,119.077194 
z"/>
<path fill="#D02D38" opacity="1.000000" stroke="none" 
	d="
M148.117828,25.850027 
	C148.036148,25.616129 148.216217,25.311253 148.664642,24.946522 
	C148.748505,25.184126 148.564041,25.481588 148.117828,25.850027 
z"/>
<path fill="#D02D38" opacity="1.000000" stroke="none" 
	d="
M119.150948,54.857780 
	C119.064949,54.622635 119.233665,54.314610 119.674309,53.958710 
	C119.766037,54.202187 119.585854,54.493542 119.150948,54.857780 
z"/>
<path fill="#C73C46" opacity="1.000000" stroke="none" 
	d="
M94.827087,117.110733 
	C95.089958,117.033386 95.072334,117.529579 95.038033,117.775497 
	C94.836952,118.039055 94.670174,118.056694 94.251678,118.082397 
	C94.188049,117.789658 94.376137,117.488869 94.827087,117.110733 
z"/>
<path fill="#D02D38" opacity="1.000000" stroke="none" 
	d="
M123.128021,50.814445 
	C123.019409,50.574848 123.192505,50.234715 123.642609,49.782585 
	C123.749672,50.018364 123.579704,50.366138 123.128021,50.814445 
z"/>
<path fill="#D02D38" opacity="1.000000" stroke="none" 
	d="
M125.007874,48.867279 
	C124.935387,48.620541 125.147507,48.306843 125.643494,47.929588 
	C125.715729,48.177460 125.504105,48.488892 125.007874,48.867279 
z"/>
<path fill="#C73C46" opacity="1.000000" stroke="none" 
	d="
M117.665611,116.053619 
	C117.375763,116.172318 117.092224,115.993912 116.737473,115.565445 
	C117.001488,115.462418 117.336700,115.609459 117.665611,116.053619 
z"/>
<path fill="#D02D38" opacity="1.000000" stroke="none" 
	d="
M135.125595,38.818649 
	C135.022003,38.582150 135.196762,38.244041 135.647552,37.797787 
	C135.750381,38.032108 135.577179,38.374577 135.125595,38.818649 
z"/>
<path fill="#D02D38" opacity="1.000000" stroke="none" 
	d="
M142.189758,31.840651 
	C142.076492,31.613180 142.231995,31.268618 142.655273,30.802282 
	C142.768188,31.028193 142.613342,31.375877 142.189758,31.840651 
z"/>
<path fill="#C73C46" opacity="1.000000" stroke="none" 
	d="
M97.998421,114.998680 
	C97.998421,114.998680 97.511688,115.077660 97.266220,115.105209 
	C97.133492,114.794167 97.246239,114.455582 97.638779,114.013046 
	C97.918587,113.909103 98.074631,114.065865 98.047867,114.298439 
	C98.021111,114.531013 97.998421,114.998680 97.998421,114.998680 
z"/>
<path fill="#C73C46" opacity="1.000000" stroke="none" 
	d="
M103.847366,108.090500 
	C104.097496,108.210907 104.095314,108.378189 103.877731,108.846756 
	C103.662323,109.148041 103.213142,109.208702 103.213142,109.208702 
	C103.213142,109.208702 103.022354,109.013092 102.927811,108.912262 
	C103.087189,108.586746 103.341125,108.362053 103.847366,108.090500 
z"/>
<path fill="#C73C46" opacity="1.000000" stroke="none" 
	d="
M97.841698,113.829613 
	C97.944496,113.493141 98.156776,113.266724 98.589417,112.932968 
	C98.777168,112.795059 98.938919,112.946724 98.926392,113.254005 
	C98.695602,113.831734 98.415855,113.999924 98.074631,114.065865 
	C98.074631,114.065865 97.918587,113.909103 97.841698,113.829613 
z"/>
<path fill="#C73C46" opacity="1.000000" stroke="none" 
	d="
M84.822609,127.107697 
	C84.904335,127.333099 84.729111,127.635780 84.290947,128.007187 
	C84.207222,127.778931 84.386444,127.481949 84.822609,127.107697 
z"/>
<path fill="#C73C46" opacity="1.000000" stroke="none" 
	d="
M133.699158,132.025940 
	C133.416229,132.144836 133.116013,131.969269 132.747498,131.532745 
	C133.013428,131.425003 133.347641,131.578232 133.699158,132.025940 
z"/>
<path fill="#C73C46" opacity="1.000000" stroke="none" 
	d="
M80.808350,131.112488 
	C80.898552,131.340057 80.730797,131.660324 80.288795,132.054077 
	C80.193161,131.820099 80.371773,131.512650 80.808350,131.112488 
z"/>
<path fill="#D02D38" opacity="1.000000" stroke="none" 
	d="
M140.133072,33.846401 
	C140.045761,33.601337 140.215286,33.290474 140.663666,32.946953 
	C140.758331,33.203068 140.574112,33.491837 140.133072,33.846401 
z"/>
<path fill="#D02D38" opacity="1.000000" stroke="none" 
	d="
M150.134109,23.849121 
	C150.045151,23.614553 150.216980,23.304472 150.659241,22.930779 
	C150.751419,23.169313 150.573151,23.471462 150.134109,23.849121 
z"/>
<path fill="#D02D38" opacity="1.000000" stroke="none" 
	d="
M149.141876,24.853642 
	C149.048370,24.616037 149.213608,24.301069 149.650879,23.928482 
	C149.748810,24.172667 149.574707,24.474474 149.141876,24.853642 
z"/>
<path fill="#D02D38" opacity="1.000000" stroke="none" 
	d="
M127.117683,46.844414 
	C127.029495,46.607986 127.204887,46.301083 127.649185,45.930191 
	C127.739151,46.168785 127.560211,46.471363 127.117683,46.844414 
z"/>
<path fill="#C8434B" opacity="1.000000" stroke="none" 
	d="
M48.796371,124.093491 
	C49.123539,123.997337 49.303699,123.999886 49.754303,124.006622 
	C49.733650,124.235054 49.442551,124.459297 48.874641,124.613052 
	C48.597836,124.542564 48.649368,124.192200 48.796371,124.093491 
z"/>
<path fill="#D02D38" opacity="1.000000" stroke="none" 
	d="
M126.125687,47.844666 
	C126.032753,47.606247 126.203087,47.293850 126.644043,46.917465 
	C126.739426,47.159214 126.564186,47.464951 126.125687,47.844666 
z"/>
<path fill="#D02D38" opacity="1.000000" stroke="none" 
	d="
M141.172089,32.866478 
	C141.089249,32.643600 141.256546,32.343681 141.687332,31.982977 
	C141.774628,32.211269 141.598434,32.500351 141.172089,32.866478 
z"/>
<path fill="#FDEBE8" opacity="1.000000" stroke="none" 
	d="
M98.047867,114.298439 
	C98.415855,113.999924 98.695602,113.831734 99.006744,113.330414 
	C99.692894,112.617134 100.286179,112.134735 100.995117,111.384125 
	C101.571419,110.817024 102.032066,110.518135 102.778824,110.355728 
	C103.064926,110.492210 103.082100,110.881813 103.082100,110.881813 
	C103.051880,111.654053 103.021667,112.426285 102.979866,113.584152 
	C101.557037,114.310486 100.145798,114.651184 98.366486,114.995277 
	C97.998421,114.998680 98.021111,114.531013 98.047867,114.298439 
z"/>
<path fill="#FEFFFF" opacity="1.000000" stroke="none" 
	d="
M103.333511,110.802315 
	C103.082100,110.881813 103.064926,110.492210 103.051132,110.297707 
	C103.037331,110.103203 103.147392,109.660301 103.180267,109.434502 
	C103.213142,109.208702 103.662323,109.148041 103.883255,109.097626 
	C104.389236,109.164902 104.623711,109.347511 104.904800,109.798103 
	C104.529648,110.241707 104.057289,110.482262 103.333511,110.802315 
z"/>
</svg>